<svg width="24" height="24" viewBox="0 0 24 24" fill="none" xmlns="http://www.w3.org/2000/svg">
<path d="M12.8301 9.99999H13.5001V7.49999L17.0001 11L15.4101 12.59L18.8301 16L21.4201 13.41C22.2001 12.63 22.2001 11.36 21.4201 10.58L13.4301 2.58C12.6501 1.8 11.3801 1.8 10.6001 2.58L8.00014 5.16999L12.8301 9.99999ZM2.81014 2.81L1.39014 4.21999L5.17014 7.99999L2.58014 10.59C1.80014 11.37 1.80014 12.64 2.58014 13.42L10.5901 21.42C11.3701 22.2 12.6401 22.2 13.4201 21.42L16.0001 18.83L19.7801 22.61L21.1901 21.2L2.81014 2.81ZM10.0001 15H8.00014V11C8.00014 10.95 8.02014 10.91 8.03014 10.86L10.0001 12.83V15Z" fill="white"/>
</svg>
