<svg width="24" height="24" viewBox="0 0 24 24" fill="none" xmlns="http://www.w3.org/2000/svg">
<path fill-rule="evenodd" clip-rule="evenodd" d="M12 3.8C12.6628 3.8 13.2 4.33726 13.2 5V19C13.2 19.6627 12.6628 20.2 12 20.2C11.3373 20.2 10.8 19.6627 10.8 19V5C10.8 4.33726 11.3373 3.8 12 3.8Z" fill="white"/>
<path fill-rule="evenodd" clip-rule="evenodd" d="M20.2 12C20.2 12.6627 19.6627 13.2 19 13.2L4.99995 13.2C4.33721 13.2 3.79995 12.6627 3.79995 12C3.79995 11.3373 4.33721 10.8 4.99995 10.8L19 10.8C19.6627 10.8 20.2 11.3373 20.2 12Z" fill="white"/>
</svg>
