<svg width="24" height="24" viewBox="0 0 24 24" fill="none" xmlns="http://www.w3.org/2000/svg">
<path d="M13.4899 5.48001C14.5899 5.48001 15.4899 4.58001 15.4899 3.48001C15.4899 2.38001 14.5899 1.48001 13.4899 1.48001C12.3899 1.48001 11.4899 2.38001 11.4899 3.48001C11.4899 4.58001 12.3899 5.48001 13.4899 5.48001ZM9.88989 19.38L10.8899 14.98L12.9899 16.98V22.98H14.9899V15.48L12.8899 13.48L13.4899 10.48C14.7899 11.98 16.7899 12.98 18.9899 12.98V10.98C17.0899 10.98 15.4899 9.98001 14.6899 8.58001L13.6899 6.98001C13.2899 6.38001 12.6899 5.98001 11.9899 5.98001C11.6899 5.98001 11.4899 6.08001 11.1899 6.08001L5.98989 8.28001V12.98H7.98989V9.58001L9.78989 8.88001L8.18989 16.98L3.28989 15.98L2.88989 17.98L9.88989 19.38Z" fill="white"/>
</svg>
