<svg width="24" height="24" viewBox="0 0 24 24" fill="none" xmlns="http://www.w3.org/2000/svg">
<path fill-rule="evenodd" clip-rule="evenodd" d="M17.7982 6.20172C18.2669 6.67035 18.2669 7.43015 17.7982 7.89878L7.89874 17.7983C7.43011 18.2669 6.67031 18.2669 6.20168 17.7983C5.73306 17.3296 5.73306 16.5698 6.20168 16.1012L16.1012 6.20172C16.5698 5.73309 17.3296 5.73309 17.7982 6.20172Z" fill="white"/>
<path fill-rule="evenodd" clip-rule="evenodd" d="M17.7982 17.7983C17.3296 18.2669 16.5698 18.2669 16.1011 17.7983L6.20165 7.89879C5.73302 7.43016 5.73302 6.67036 6.20165 6.20173C6.67028 5.7331 7.43008 5.7331 7.89871 6.20173L17.7982 16.1012C18.2668 16.5699 18.2668 17.3297 17.7982 17.7983Z" fill="white"/>
</svg>
