<svg width="16" height="16" viewBox="0 0 16 16" fill="none" xmlns="http://www.w3.org/2000/svg">
<path fill-rule="evenodd" clip-rule="evenodd" d="M7.38336 3.852C7.46722 3.47461 7.22927 3.10068 6.85188 3.01682C6.47449 2.93295 6.10056 3.17091 6.0167 3.5483L5.58293 5.50024H3.7C3.3134 5.50024 3 5.81364 3 6.20024C3 6.58684 3.3134 6.90024 3.7 6.90024H5.27182L4.69404 9.50024H2.7C2.3134 9.50024 2 9.81364 2 10.2002C2 10.5868 2.3134 10.9002 2.7 10.9002H4.38293L4.0167 12.5483C3.93283 12.9257 4.17078 13.2996 4.54818 13.3835C4.92557 13.4673 5.29949 13.2294 5.38336 12.852L5.81708 10.9002H8.38293L8.0167 12.5483C7.93283 12.9257 8.17078 13.2996 8.54818 13.3835C8.92557 13.4673 9.29949 13.2294 9.38336 12.852L9.81708 10.9002H11.7C12.0866 10.9002 12.4 10.5868 12.4 10.2002C12.4 9.81364 12.0866 9.50024 11.7 9.50024H10.1282L10.706 6.90024H12.7C13.0866 6.90024 13.4 6.58684 13.4 6.20024C13.4 5.81364 13.0866 5.50024 12.7 5.50024H11.0171L11.3834 3.852C11.4672 3.47461 11.2293 3.10068 10.8519 3.01682C10.4745 2.93295 10.1006 3.17091 10.0167 3.5483L9.58293 5.50024H7.01708L7.38336 3.852ZM8.69404 9.50024L9.27182 6.90024H6.70597L6.12819 9.50024H8.69404Z" fill="white"/>
</svg>
