<svg width="24" height="24" viewBox="0 0 24 24" fill="none" xmlns="http://www.w3.org/2000/svg">
<g clip-path="url(#clip0_193_2730)">
<path d="M21.9959 18.23C21.9959 18.957 21.5909 20.357 20.6819 21.126C20.4999 21.266 20.3169 21.187 20.3969 20.983C20.6619 20.335 21.2689 18.836 20.9839 18.491C20.7839 18.229 19.9539 18.248 19.2459 18.309C18.9219 18.35 18.6389 18.369 18.4179 18.414C18.2149 18.431 18.1729 18.251 18.3769 18.111C18.6389 17.926 18.9219 17.786 19.2469 17.683C20.3969 17.339 21.7269 17.546 21.9169 17.766C21.9529 17.808 21.9969 17.926 21.9969 18.229L21.9959 18.23ZM20.0749 19.524C19.8109 19.7257 19.5336 19.9094 19.2449 20.074C17.1229 21.349 14.3749 22.017 11.9869 22.017C8.14393 22.017 4.70693 20.6 2.09893 18.229C1.87593 18.047 2.06093 17.783 2.32193 17.926C5.13193 19.566 8.60993 20.558 12.2109 20.558C14.4759 20.558 16.9189 20.134 19.2459 19.222C19.4079 19.161 19.5899 19.078 19.7489 19.02C20.1159 18.855 20.4389 19.263 20.0749 19.524V19.524ZM13.9049 8.494C13.9049 7.453 13.9459 6.84 13.6009 6.314C13.2949 5.881 12.7679 5.621 12.0329 5.662C11.2349 5.706 10.3779 6.229 10.1589 7.188C10.1169 7.408 9.98793 7.624 9.72293 7.671L7.28693 7.361C7.11293 7.321 6.84893 7.188 6.93493 6.84C7.45793 4.088 9.80993 3.129 12.0329 3H12.5559C13.7759 3 15.3429 3.349 16.3459 4.264C17.5629 5.4 17.4339 6.926 17.4339 8.584V12.511C17.4339 13.689 17.9109 14.211 18.3919 14.825C18.5219 15.044 18.5659 15.302 18.3469 15.48C17.8669 15.915 16.9529 16.699 16.4299 17.134C16.2559 17.267 15.9419 17.281 15.8199 17.179C15.0499 16.534 14.8619 16.176 14.3849 15.521C13.5549 16.392 12.8589 16.873 12.0299 17.134C11.4469 17.282 10.8474 17.3546 10.2459 17.35C8.15593 17.35 6.49993 16.047 6.49993 13.47C6.49993 11.421 7.58993 10.028 9.19993 9.369C10.8099 8.709 13.1499 8.499 13.9039 8.495L13.9049 8.494ZM13.4269 13.686C13.9469 12.814 13.9039 12.1 13.9039 10.501C13.2529 10.501 12.5979 10.546 12.0329 10.679C10.9879 10.982 10.1589 11.64 10.1589 13.034C10.1589 14.124 10.7259 14.866 11.6839 14.866C11.8159 14.866 11.9319 14.85 12.0329 14.821C12.7029 14.635 13.1209 14.299 13.4269 13.686V13.686Z" fill="#2D2D2D"/>
</g>
<defs>
<clipPath id="clip0_193_2730">
<rect width="24" height="24" fill="white"/>
</clipPath>
</defs>
</svg>
