<svg width="24" height="24" viewBox="0 0 24 24" fill="none" xmlns="http://www.w3.org/2000/svg">
<path fill-rule="evenodd" clip-rule="evenodd" d="M22.0796 0H1.92041C0.860293 0 0 0.860288 0 1.92041V22.0796C0 23.1397 0.860293 24 1.92041 24H22.0796C23.1397 24 24 23.1397 24 22.0796V1.92041C24 0.860288 23.1397 0 22.0796 0ZM8.75196 5.41914H15.1161C15.5462 5.41914 15.8917 5.76123 15.8917 6.18798V12.254C15.8002 14.1033 15.2888 17.5208 11.746 20.2473C11.6715 20.3014 11.5665 20.2981 11.4751 20.2777C11.3904 20.2574 11.2922 20.1524 11.2922 20.1524L9.24646 17.8595C9.18888 17.7782 9.13808 17.7003 9.13808 17.5987C9.13808 17.4666 9.20243 17.3717 9.28711 17.2904C9.29727 17.2837 10.3845 16.3793 10.8959 15.5631C11.3498 14.8383 11.6648 14.022 11.6851 13.2701H8.75196C8.32521 13.2701 7.97974 12.928 7.97974 12.5013V6.18798C7.97974 5.76461 8.32521 5.41914 8.75196 5.41914Z" fill="#231F20"/>
</svg>
