<svg width="25" height="24" viewBox="0 0 25 24" fill="none" xmlns="http://www.w3.org/2000/svg">
<path fill-rule="evenodd" clip-rule="evenodd" d="M12.9282 1.14618C6.261 1.14618 0.856445 5.4188 0.856445 10.6895C0.856445 14.1204 3.1466 17.1266 6.58308 18.8089C6.33042 19.7519 5.66877 22.2241 5.53618 22.7532C5.37296 23.4098 5.77696 23.4011 6.04149 23.2241C6.24912 23.0859 9.34977 20.9783 10.6875 20.0684C11.4135 20.176 12.1621 20.2329 12.9282 20.2329C19.5954 20.2329 25 15.9596 25 10.6895C25 5.41942 19.5948 1.14618 12.9282 1.14618ZM8.06992 7.87907H4.54026C4.20818 7.87907 3.93989 8.14799 3.93989 8.47944C3.93989 8.81089 4.20881 9.07981 4.54026 9.07981H5.68784V13.3086C5.68784 13.4625 5.75038 13.6138 5.86044 13.7233C5.96801 13.8321 6.11872 13.8946 6.27319 13.8946H6.4014C6.55524 13.8946 6.70533 13.8321 6.81353 13.7233C6.92359 13.6138 6.98613 13.4631 6.98613 13.3086V9.07981H8.06992C8.402 9.07981 8.67091 8.81089 8.67091 8.47944C8.67091 8.14799 8.402 7.87907 8.06992 7.87907ZM14.9129 12.7652H16.5545C16.8559 12.7652 17.0992 13.0085 17.0992 13.3099C17.0992 13.6113 16.8566 13.8552 16.5545 13.8552H14.1555C13.8541 13.8552 13.6108 13.6113 13.6108 13.3099C13.6108 13.2749 13.6146 13.2399 13.6208 13.2061C13.6152 13.1717 13.6108 13.1379 13.6108 13.1017V8.44631C13.6108 8.08608 13.9023 7.79466 14.2619 7.79466C14.6215 7.79466 14.9129 8.08608 14.9129 8.44631V12.7652ZM21.8 12.9634L19.9708 10.5607L21.6237 8.90721C21.8476 8.68395 21.8476 8.3206 21.6237 8.09672C21.3998 7.87283 21.0371 7.87283 20.8126 8.09672L18.7663 10.143V8.44631C18.7663 8.08608 18.4749 7.79466 18.1153 7.79466C17.7557 7.79466 17.4636 8.08608 17.4636 8.44631V13.2449C17.4636 13.6051 17.7551 13.8965 18.1153 13.8965C18.4755 13.8965 18.7663 13.6057 18.7663 13.2449V11.7646L19.1384 11.3931L20.8688 13.6639C21.0615 13.9209 21.4273 13.9741 21.6843 13.7796C21.9414 13.5863 21.9933 13.2211 21.8 12.9634ZM11.3634 8.30624L13.1226 13.1192C13.2295 13.4237 13.0694 13.7564 12.7655 13.8634C12.4615 13.9703 12.1282 13.8102 12.0213 13.5063L11.7223 12.652H9.31462L9.01506 13.5063C8.90812 13.8102 8.57479 13.9703 8.27086 13.8634C7.96755 13.7564 7.80745 13.4237 7.91439 13.1192L9.6442 8.47884C9.65421 8.45132 9.66609 8.42568 9.67797 8.40004C9.74864 8.05671 10.1039 7.79405 10.5335 7.79405C10.9206 7.79405 11.2452 8.0073 11.3577 8.30061C11.359 8.30248 11.3634 8.30624 11.3634 8.30624ZM10.506 9.25181L9.69673 11.5607H9.69736H11.3409L10.5322 9.25432C10.5276 9.25432 10.5233 9.25369 10.5191 9.25307C10.5149 9.25244 10.5107 9.25181 10.506 9.25181Z" fill="#2D2D2D"/>
</svg>
