<svg width="24" height="24" viewBox="0 0 24 24" fill="none" xmlns="http://www.w3.org/2000/svg">
<path d="M15.9217 1H7.07363C6.48031 1 6 1.51104 6 2.13732V11.4764C6 12.1076 6.48031 12.6137 7.07363 12.6137H11.1515C11.1233 13.7259 10.6854 14.9334 10.0544 16.0056C9.34333 17.213 7.83177 18.5508 7.81764 18.5608C7.69992 18.681 7.61045 18.8213 7.61045 19.0167C7.61045 19.167 7.68107 19.2823 7.76112 19.4025L10.6053 22.7944C10.6053 22.7944 10.7419 22.9497 10.8596 22.9798C10.9867 23.0099 11.1327 23.0149 11.2363 22.9347C16.1618 18.9015 16.8729 13.8462 17 11.1106C17 11.0956 17 2.13732 17 2.13732C17 1.50603 16.5197 1 15.9217 1Z" fill="#2D2D2D"/>
</svg>
