<svg width="24" height="24" viewBox="0 0 24 24" fill="none" xmlns="http://www.w3.org/2000/svg">
<g clip-path="url(#clip0_193_2978)">
<path d="M13.3102 20.4C11.9879 20.6066 10.6355 20.498 9.36308 20.083C8.09069 19.6681 6.93425 18.9586 5.98791 18.0123C5.04156 17.0659 4.33205 15.9095 3.91713 14.6371C3.50221 13.3647 3.39361 12.0123 3.60016 10.69C3.07889 9.69851 2.88841 8.56629 3.05657 7.45882C3.22472 6.35135 3.74269 5.32669 4.53477 4.53461C5.32684 3.74254 6.3515 3.22457 7.45897 3.05641C8.56644 2.88826 9.69867 3.07874 10.6902 3.6C12.0125 3.39345 13.3648 3.50206 14.6372 3.91698C15.9096 4.3319 17.0661 5.04141 18.0124 5.98776C18.9588 6.9341 19.6683 8.09054 20.0832 9.36293C20.4981 10.6353 20.6067 11.9877 20.4002 13.31C20.9214 14.3015 21.1119 15.4337 20.9437 16.5412C20.7756 17.6487 20.2576 18.6733 19.4655 19.4654C18.6735 20.2575 17.6488 20.7754 16.5413 20.9436C15.4339 21.1117 14.3016 20.9213 13.3102 20.4V20.4ZM12.0522 17.156H12.0122C14.8842 17.156 16.3152 15.77 16.3152 13.913C16.3152 12.715 15.7642 11.442 13.5892 10.955L11.6062 10.515C10.8512 10.343 9.98416 10.115 9.98416 9.4C9.98416 8.685 10.6042 8.18701 11.7082 8.18701C13.9382 8.18701 13.7352 9.715 14.8392 9.715C15.4152 9.715 15.9322 9.373 15.9322 8.785C15.9322 7.415 13.7352 6.38501 11.8762 6.38501C9.85516 6.38501 7.70316 7.244 7.70316 9.52901C7.70316 10.627 8.09716 11.799 10.2632 12.342L12.9522 13.013C13.7682 13.215 13.9702 13.672 13.9702 14.085C13.9702 14.772 13.2862 15.443 12.0522 15.443C9.63516 15.443 9.97416 13.586 8.67816 13.586C8.09816 13.586 7.67516 13.984 7.67516 14.557C7.67516 15.671 9.02716 17.155 12.0522 17.155V17.156Z" fill="#2D2D2D"/>
</g>
<defs>
<clipPath id="clip0_193_2978">
<rect width="24" height="24" fill="white"/>
</clipPath>
</defs>
</svg>
