<svg width="24" height="24" viewBox="0 0 24 24" fill="none" xmlns="http://www.w3.org/2000/svg">
<g clip-path="url(#clip0_193_3030)">
<path d="M6.27002 7.63C7.55694 7.35229 8.70988 6.64211 9.53686 5.61771C10.3638 4.59332 10.8149 3.31654 10.815 2H13.845V7.152H17.482V10.788H13.846V16.242C13.846 16.757 14.043 17.449 14.755 17.909C15.229 18.216 16.239 18.367 17.785 18.364V22H13.543C12.9461 22.0001 12.355 21.8827 11.8034 21.6543C11.2519 21.426 10.7507 21.0912 10.3286 20.6692C9.90642 20.2471 9.57155 19.746 9.34308 19.1945C9.11461 18.643 8.99702 18.0519 8.99702 17.455V10.788H6.27002V7.63Z" fill="#2D2D2D"/>
</g>
<defs>
<clipPath id="clip0_193_3030">
<rect width="24" height="24" fill="white"/>
</clipPath>
</defs>
</svg>
