<svg width="24" height="24" viewBox="0 0 24 24" fill="none" xmlns="http://www.w3.org/2000/svg">
<g clip-path="url(#clip0_193_3050)">
<path d="M1.17303 8.301C0.892033 7.888 0.921033 7.888 1.50103 7.379C2.73303 6.297 3.89503 5.113 5.23703 4.167C6.45203 3.315 8.06303 2.765 9.16403 4.12C10.178 5.369 10.202 7.262 10.459 8.77C10.716 10.334 10.962 11.934 11.51 13.43C11.662 13.851 11.953 14.647 12.478 14.714C13.156 14.807 13.846 13.618 14.161 13.174C14.978 11.994 16.086 10.405 15.946 8.888C15.808 7.276 14.068 7.579 12.98 7.964C13.155 6.155 14.838 4.121 16.46 3.434C18.18 2.72 20.736 2.732 21.6 4.671C22.523 6.773 21.693 9.214 20.688 11.119C19.591 13.187 18.179 15.101 16.67 16.889C15.339 18.477 13.764 20.219 11.78 20.978C9.51303 21.842 8.17003 20.158 7.39803 18.208C6.55503 16.085 6.13603 13.702 5.52803 11.491C5.27203 10.557 4.96803 9.494 4.36103 8.723C3.56903 7.728 2.66903 8.663 1.88703 9.2C1.61803 8.933 1.39603 8.593 1.17303 8.301V8.301Z" fill="#2D2D2D"/>
</g>
<defs>
<clipPath id="clip0_193_3050">
<rect width="24" height="24" fill="white"/>
</clipPath>
</defs>
</svg>
