<svg width="200" height="144" fill="none" xmlns="http://www.w3.org/2000/svg"><g clip-path="url(#a)"><rect width="200" height="144" rx="4" fill="#F7F8F9"/><g filter="url(#b)"><path d="M24 44h179v97a4 4 0 0 1-4 4H24V44Z" fill="#fff"/><path d="M24 28a4 4 0 0 1 4-4h172v20.336H24V28Z" fill="#F1F2F4"/><ellipse cx="36" cy="34.168" rx="4" ry="4.067" fill="#B3B9C4"/><ellipse cx="48" cy="34.168" rx="4" ry="4.067" fill="#B3B9C4"/><ellipse cx="60" cy="34.168" rx="4" ry="4.067" fill="#B3B9C4"/></g><path fill="#44546F" d="M24 44h176v32H24z"/><path fill-rule="evenodd" clip-rule="evenodd" d="M40 66.667a6.667 6.667 0 1 1 0-13.333 6.667 6.667 0 0 1 0 13.333Zm.667-9.334a.667.667 0 1 1-1.334 0 .667.667 0 0 1 1.334 0ZM40 58.667c.368 0 .667.298.667.666v3.334a.667.667 0 0 1-1.334 0v-3.334c0-.368.299-.666.667-.666Z" fill="#F7F8F9"/><rect x="56" y="56" width="151" height="8" rx="4" fill="#DCDFE4"/></g><defs><clipPath id="a"><path fill="#fff" d="M0 0h200v144H0z"/></clipPath><filter id="b" x="12" y="20" width="203" height="145" filterUnits="userSpaceOnUse" color-interpolation-filters="sRGB"><feFlood flood-opacity="0" result="BackgroundImageFix"/><feColorMatrix in="SourceAlpha" values="0 0 0 0 0 0 0 0 0 0 0 0 0 0 0 0 0 0 127 0" result="hardAlpha"/><feOffset dy="8"/><feGaussianBlur stdDeviation="6"/><feColorMatrix values="0 0 0 0 0.0352941 0 0 0 0 0.117647 0 0 0 0 0.258824 0 0 0 0.15 0"/><feBlend in2="BackgroundImageFix" result="effect1_dropShadow_391_187"/><feColorMatrix in="SourceAlpha" values="0 0 0 0 0 0 0 0 0 0 0 0 0 0 0 0 0 0 127 0" result="hardAlpha"/><feOffset/><feGaussianBlur stdDeviation=".5"/><feColorMatrix values="0 0 0 0 0.0352941 0 0 0 0 0.117647 0 0 0 0 0.258824 0 0 0 0.31 0"/><feBlend in2="effect1_dropShadow_391_187" result="effect2_dropShadow_391_187"/><feBlend in="SourceGraphic" in2="effect2_dropShadow_391_187" result="shape"/></filter></defs></svg>