<svg width="200" height="144" fill="none" xmlns="http://www.w3.org/2000/svg"><g clip-path="url(#a)"><path d="M0 4a4 4 0 0 1 4-4h192a4 4 0 0 1 4 4v136a4 4 0 0 1-4 4H4a4 4 0 0 1-4-4V4Z" fill="#F7F8F9"/><g filter="url(#b)"><rect x="32" y="24" width="136" height="124" rx="3" fill="#fff"/><path fill-rule="evenodd" clip-rule="evenodd" d="m50.003 39.33 3.062-3.062a.661.661 0 1 1 .934.933l-2.6 2.6 2.6 2.6a.66.66 0 0 1-.934.934l-3.062-3.062a.666.666 0 0 1 0-.942v-.001Z" fill="#B3B9C4"/><rect x="68" y="38" width="64" height="4" rx="2" fill="#8993A5"/><path fill-rule="evenodd" clip-rule="evenodd" d="M149.997 39.33a.666.666 0 0 1 0 .943l-3.062 3.062a.663.663 0 0 1-.929-.005.66.66 0 0 1-.005-.929l2.6-2.6-2.6-2.6a.662.662 0 0 1 .468-1.122c.174 0 .341.067.466.189l3.062 3.062Z" fill="#B3B9C4"/><rect x="44" y="60" width="16" height="4" rx="2" fill="#B3B9C4"/><circle cx="52" cy="77" r="4" fill="#F1F2F4"/><circle cx="52" cy="95" r="4" fill="#F1F2F4"/><circle cx="52" cy="113" r="4" fill="#F1F2F4"/><circle cx="52" cy="131" r="4" fill="#F1F2F4"/><rect x="68" y="60" width="16" height="4" rx="2" fill="#B3B9C4"/><circle cx="76" cy="77" r="4" fill="#F1F2F4"/><circle cx="76" cy="95" r="4" fill="#F1F2F4"/><circle cx="76" cy="113" r="4" fill="#F1F2F4"/><circle cx="76" cy="131" r="4" fill="#F1F2F4"/><rect x="92" y="60" width="16" height="4" rx="2" fill="#B3B9C4"/><circle cx="100" cy="77" r="4" fill="#F1F2F4"/><circle cx="100" cy="95" r="4" fill="#F1F2F4"/><circle cx="100" cy="113" r="4" fill="#F1F2F4"/><circle cx="100" cy="131" r="4" fill="#F1F2F4"/><rect x="116" y="60" width="16" height="4" rx="2" fill="#B3B9C4"/><circle cx="124" cy="77" r="4" fill="#44546F"/><circle cx="124" cy="95" r="4" fill="#F1F2F4"/><circle cx="124" cy="113" r="4" fill="#F1F2F4"/><circle cx="124" cy="131" r="4" fill="#F1F2F4"/><rect x="140" y="60" width="16" height="4" rx="2" fill="#B3B9C4"/><circle cx="148" cy="77" r="4" fill="#F1F2F4"/><circle cx="148" cy="95" r="4" fill="#F1F2F4"/><circle cx="148" cy="113" r="4" fill="#F1F2F4"/><circle cx="148" cy="131" r="4" fill="#F1F2F4"/></g></g><defs><clipPath id="a"><path d="M0 4a4 4 0 0 1 4-4h192a4 4 0 0 1 4 4v136a4 4 0 0 1-4 4H4a4 4 0 0 1-4-4V4Z" fill="#fff"/></clipPath><filter id="b" x="20" y="20" width="160" height="148" filterUnits="userSpaceOnUse" color-interpolation-filters="sRGB"><feFlood flood-opacity="0" result="BackgroundImageFix"/><feColorMatrix in="SourceAlpha" values="0 0 0 0 0 0 0 0 0 0 0 0 0 0 0 0 0 0 127 0" result="hardAlpha"/><feOffset dy="8"/><feGaussianBlur stdDeviation="6"/><feColorMatrix values="0 0 0 0 0.0352941 0 0 0 0 0.117647 0 0 0 0 0.258824 0 0 0 0.15 0"/><feBlend in2="BackgroundImageFix" result="effect1_dropShadow_2097_6021"/><feColorMatrix in="SourceAlpha" values="0 0 0 0 0 0 0 0 0 0 0 0 0 0 0 0 0 0 127 0" result="hardAlpha"/><feOffset/><feGaussianBlur stdDeviation=".5"/><feColorMatrix values="0 0 0 0 0.0352941 0 0 0 0 0.117647 0 0 0 0 0.258824 0 0 0 0.31 0"/><feBlend in2="effect1_dropShadow_2097_6021" result="effect2_dropShadow_2097_6021"/><feBlend in="SourceGraphic" in2="effect2_dropShadow_2097_6021" result="shape"/></filter></defs></svg>