<svg width="200" height="144" fill="none" xmlns="http://www.w3.org/2000/svg"><g clip-path="url(#a)"><rect width="200" height="144" rx="4" fill="#F7F8F9"/><rect x="24" y="24" width="151.667" height="37.667" rx="4" fill="#fff"/><path fill-rule="evenodd" clip-rule="evenodd" d="M53.667 42.833c0 5.983-4.85 10.834-10.834 10.834C36.85 53.667 32 48.817 32 42.833 32 36.85 36.85 32 42.833 32c5.983 0 10.834 4.85 10.834 10.833Zm-7.584-3.25a3.25 3.25 0 1 1-6.5 0 3.25 3.25 0 0 1 6.5 0ZM42.833 51.5a8.63 8.63 0 0 1-5.416-1.901v-3.516a2.16 2.16 0 0 1 2.166-2.166h6.5a2.16 2.16 0 0 1 2.167 2.166V49.6a8.63 8.63 0 0 1-5.417 1.901Z" fill="#B3B9C4"/><g clip-path="url(#b)"><rect x="60.667" y="33" width="44.956" height="4" rx="2" fill="#8993A5"/><rect x="60.667" y="41" width="107" height="4" rx="2" fill="#DCDFE4"/><rect x="60.667" y="49" width="107" height="4" rx="2" fill="#DCDFE4"/></g><rect x="24" y="69" width="151.667" height="37.667" rx="4" fill="#fff"/><path fill-rule="evenodd" clip-rule="evenodd" d="M53.667 87.833c0 5.983-4.85 10.834-10.834 10.834C36.85 98.667 32 93.817 32 87.833 32 81.85 36.85 77 42.833 77c5.983 0 10.834 4.85 10.834 10.833Zm-7.584-3.25a3.25 3.25 0 1 1-6.5 0 3.25 3.25 0 0 1 6.5 0ZM42.833 96.5a8.63 8.63 0 0 1-5.416-1.901v-3.516a2.16 2.16 0 0 1 2.166-2.166h6.5a2.16 2.16 0 0 1 2.167 2.166V94.6a8.63 8.63 0 0 1-5.417 1.901Z" fill="#B3B9C4"/><g clip-path="url(#c)"><rect x="60.667" y="78" width="44.956" height="4" rx="2" fill="#8993A5"/><rect x="60.667" y="86" width="107" height="4" rx="2" fill="#DCDFE4"/><rect x="60.667" y="94" width="107" height="4" rx="2" fill="#DCDFE4"/></g><rect x="24" y="114" width="151.667" height="37.667" rx="4" fill="#fff"/><path fill-rule="evenodd" clip-rule="evenodd" d="M53.667 132.833c0 5.983-4.85 10.834-10.834 10.834-5.983 0-10.833-4.851-10.833-10.834S36.85 122 42.833 122c5.983 0 10.834 4.85 10.834 10.833Zm-7.584-3.25a3.25 3.25 0 1 1-6.5 0 3.25 3.25 0 0 1 6.5 0Zm-3.25 11.917a8.631 8.631 0 0 1-5.416-1.901v-3.516a2.16 2.16 0 0 1 2.166-2.166h6.5c1.197 0 2.167.958 2.167 2.166v3.516a8.633 8.633 0 0 1-5.417 1.901Z" fill="#B3B9C4"/><g clip-path="url(#d)"><rect x="60.667" y="123" width="44.956" height="4" rx="2" fill="#8993A5"/><rect x="60.667" y="131" width="107" height="4" rx="2" fill="#DCDFE4"/><rect x="60.667" y="139" width="107" height="4" rx="2" fill="#DCDFE4"/></g></g><defs><clipPath id="a"><path fill="#fff" d="M0 0h200v144H0z"/></clipPath><clipPath id="b"><path fill="#fff" transform="translate(60.667 32)" d="M0 0h107v21H0z"/></clipPath><clipPath id="c"><path fill="#fff" transform="translate(60.667 77)" d="M0 0h107v21H0z"/></clipPath><clipPath id="d"><path fill="#fff" transform="translate(60.667 122)" d="M0 0h107v21H0z"/></clipPath></defs></svg>