<svg width="200" height="144" fill="none" xmlns="http://www.w3.org/2000/svg"><rect width="200" height="144" rx="4" fill="#F7F8F9"/><rect x="12.5" y="59" width="175" height="38" rx="3" fill="#fff" stroke="#DCDFE4" stroke-width="2"/><path fill-rule="evenodd" clip-rule="evenodd" d="M161.495 71h14.01c1.102 0 1.995.895 1.995 1.994v12.012a2 2 0 0 1-1.232 1.843c-.242.1-.501.151-.763.151h-14.01a1.994 1.994 0 0 1-1.995-1.994V72.994c0-1.101.892-1.994 1.995-1.994Zm.005 4v9a.998.998 0 0 0 1 1h12a1 1 0 0 0 1-1v-9h-14Zm1-5a.998.998 0 0 1 1-1 1 1 0 0 1 1 1v1h-2v-1Zm10 0a.998.998 0 0 1 1-1 1 1 0 0 1 1 1v1h-2v-1Zm-9 9v-2.001h2V79h-2Zm8 0v-2.001h2V79h-2Zm-4 0v-2.001h2.001V79H167.5Zm-4 4v-2h2v2h-2Zm4 0v-2h2.001v2H167.5Zm4 0v-2h2v2h-2Z" fill="#44546F"/><rect x="11.5" y="46" width="60" height="8" rx="4" fill="#DCDFE4"/></svg>