<svg width="200" height="144" fill="none" xmlns="http://www.w3.org/2000/svg"><g clip-path="url(#a)"><rect width="200" height="144" rx="4" fill="#F7F8F9"/><path d="M24 1h176v119H28a4 4 0 0 1-4-4V1Z" fill="#fff"/><g filter="url(#b)"><rect x="44" y="60" width="199" height="40" rx="3" fill="#F1F2F4"/><path fill-rule="evenodd" clip-rule="evenodd" d="M63.062 72.967c.516-.974 1.358-.978 1.876 0l7.124 13.458c.516.974.045 1.771-1.057 1.771h-14.01c-1.102 0-1.575-.793-1.057-1.771l7.124-13.458Zm.23 9.74A1 1 0 0 0 65 82v-5a1 1 0 0 0-2 0v5a1 1 0 0 0 .293.707Zm0 3a1 1 0 1 0 1.415-1.414 1 1 0 0 0-1.414 1.414Z" fill="#44546F"/><rect x="84" y="76" width="151" height="8" rx="4" fill="#B3B9C4"/></g></g><defs><clipPath id="a"><path fill="#fff" d="M0 0h200v144H0z"/></clipPath><filter id="b" x="32" y="56" width="223" height="64" filterUnits="userSpaceOnUse" color-interpolation-filters="sRGB"><feFlood flood-opacity="0" result="BackgroundImageFix"/><feColorMatrix in="SourceAlpha" values="0 0 0 0 0 0 0 0 0 0 0 0 0 0 0 0 0 0 127 0" result="hardAlpha"/><feOffset dy="8"/><feGaussianBlur stdDeviation="6"/><feColorMatrix values="0 0 0 0 0.0352941 0 0 0 0 0.117647 0 0 0 0 0.258824 0 0 0 0.15 0"/><feBlend in2="BackgroundImageFix" result="effect1_dropShadow_405_247"/><feColorMatrix in="SourceAlpha" values="0 0 0 0 0 0 0 0 0 0 0 0 0 0 0 0 0 0 127 0" result="hardAlpha"/><feOffset/><feGaussianBlur stdDeviation=".5"/><feColorMatrix values="0 0 0 0 0.0352941 0 0 0 0 0.117647 0 0 0 0 0.258824 0 0 0 0.31 0"/><feBlend in2="effect1_dropShadow_405_247" result="effect2_dropShadow_405_247"/><feBlend in="SourceGraphic" in2="effect2_dropShadow_405_247" result="shape"/></filter></defs></svg>