<svg width="200" height="144" fill="none" xmlns="http://www.w3.org/2000/svg"><rect width="200" height="144" rx="4" fill="#F7F8F9"/><path fill-rule="evenodd" clip-rule="evenodd" d="M37.062 44.967c.516-.974 1.358-.978 1.876 0l7.124 13.458c.516.974.045 1.771-1.057 1.771h-14.01c-1.102 0-1.575-.793-1.057-1.77l7.124-13.459Zm.23 9.74A1 1 0 0 0 39 54v-5a1 1 0 0 0-2 0v5a1 1 0 0 0 .293.707Zm0 3a1 1 0 1 0 1.415-1.413 1 1 0 0 0-1.414 1.413Z" fill="#44546F"/><rect x="58" y="48" width="116" height="8" rx="4" fill="#B3B9C4"/><g filter="url(#a)"><rect x="23" y="67" width="152" height="38" rx="4" fill="#fff"/></g><rect x="32.457" y="76" width="52.857" height="4" rx="2" fill="#B3B9C4"/><g clip-path="url(#b)" fill="#DCDFE4"><rect x="32.457" y="84" width="130" height="4" rx="2"/><rect x="32.457" y="92" width="130" height="4" rx="2"/></g><defs><clipPath id="b"><path fill="#fff" transform="translate(32.457 84)" d="M0 0h130v12H0z"/></clipPath><filter id="a" x="11" y="63" width="176" height="62" filterUnits="userSpaceOnUse" color-interpolation-filters="sRGB"><feFlood flood-opacity="0" result="BackgroundImageFix"/><feColorMatrix in="SourceAlpha" values="0 0 0 0 0 0 0 0 0 0 0 0 0 0 0 0 0 0 127 0" result="hardAlpha"/><feOffset dy="8"/><feGaussianBlur stdDeviation="6"/><feColorMatrix values="0 0 0 0 0.0352941 0 0 0 0 0.117647 0 0 0 0 0.258824 0 0 0 0.15 0"/><feBlend in2="BackgroundImageFix" result="effect1_dropShadow_405_283"/><feColorMatrix in="SourceAlpha" values="0 0 0 0 0 0 0 0 0 0 0 0 0 0 0 0 0 0 127 0" result="hardAlpha"/><feOffset/><feGaussianBlur stdDeviation=".5"/><feColorMatrix values="0 0 0 0 0.0352941 0 0 0 0 0.117647 0 0 0 0 0.258824 0 0 0 0.31 0"/><feBlend in2="effect1_dropShadow_405_283" result="effect2_dropShadow_405_283"/><feBlend in="SourceGraphic" in2="effect2_dropShadow_405_283" result="shape"/></filter></defs></svg>