<svg width="200" height="144" viewBox="0 0 200 144" fill="none" xmlns="http://www.w3.org/2000/svg">
<rect width="200" height="144" rx="4" fill="#F7F8F9"/>
<path d="M70.8029 78.5V65.616H73.1065V76.5625H79.0172V78.5H70.8029ZM82.4101 67.1071C81.6779 67.1071 81.0797 66.5268 81.0797 65.7946C81.0797 65.0714 81.6779 64.4821 82.4101 64.4821C83.1333 64.4821 83.7315 65.0714 83.7315 65.7946C83.7315 66.5268 83.1333 67.1071 82.4101 67.1071ZM81.294 78.5V68.741H83.5172V78.5H81.294ZM86.2494 78.5V68.741H88.4726V70.2321H88.6244C89.0887 69.1875 90.0262 68.5535 91.4369 68.5535C93.6155 68.5535 94.803 69.866 94.803 72.1875V78.5H92.5798V72.7053C92.5798 71.1875 91.9637 70.4196 90.6155 70.4196C89.294 70.4196 88.4726 71.3482 88.4726 72.8125V78.5H86.2494ZM97.5173 78.5V64.9643H99.7405V72.7411H99.8923L103.49 68.741H106.062L102.133 72.8661L106.33 78.5H103.651L100.517 74.2768L99.7405 75.0714V78.5H97.5173Z" fill="#8590A2"/>
<path d="M69.2136 81.8304H106.678V83.3036H69.2136V81.8304Z" fill="#8590A2"/>
<g clip-path="url(#clip0_3785_2365)">
<path d="M128.248 78.4001C128.245 78.4001 128.244 78.4019 128.244 78.4019L128.248 78.4001ZM115.444 78.4056C115.444 78.4019 115.442 78.4001 115.439 78.4001H115.444V78.4056ZM128.244 78.4001V72.9144H130.072V78.4019C130.072 78.6417 130.025 78.8791 129.934 79.1006C129.842 79.3222 129.708 79.5236 129.539 79.6932C129.369 79.8628 129.168 79.9974 128.947 80.0893C128.725 80.1812 128.488 80.2286 128.248 80.2287H115.439C114.955 80.2284 114.492 80.0363 114.15 79.6945C113.808 79.3527 113.615 78.8891 113.615 78.4056V65.5946C113.615 64.5879 114.434 63.7715 115.441 63.7715H120.929V65.6001H115.444V78.4001H128.244ZM115.444 78.4056C115.444 78.4019 115.442 78.4001 115.439 78.4001H115.444V78.4056ZM120.929 65.6001H115.444V78.4001H128.244V72.9144H130.072V78.4019C130.072 78.6417 130.025 78.8791 129.934 79.1006C129.842 79.3222 129.708 79.5236 129.539 79.6932C129.369 79.8628 129.168 79.9974 128.947 80.0893C128.725 80.1812 128.488 80.2286 128.248 80.2287H115.439C114.955 80.2284 114.492 80.0363 114.15 79.6945C113.808 79.3527 113.615 78.8891 113.615 78.4056V65.5946C113.615 64.5879 114.434 63.7715 115.441 63.7715H120.929V65.6001ZM128.244 65.6001V68.3429C128.244 68.5854 128.34 68.818 128.511 68.9894C128.683 69.1609 128.915 69.2572 129.158 69.2572C129.4 69.2572 129.633 69.1609 129.804 68.9894C129.976 68.818 130.072 68.5854 130.072 68.3429V64.6858C130.072 64.4433 129.976 64.2107 129.804 64.0393C129.633 63.8678 129.4 63.7715 129.158 63.7715H125.501C125.258 63.7715 125.026 63.8678 124.854 64.0393C124.683 64.2107 124.586 64.4433 124.586 64.6858C124.586 64.9283 124.683 65.1608 124.854 65.3323C125.026 65.5037 125.258 65.6001 125.501 65.6001H128.244Z" fill="#8590A2"/>
<path d="M122.49 72.6465L129.804 65.3322C129.892 65.2478 129.961 65.147 130.009 65.0354C130.057 64.9239 130.082 64.8039 130.083 64.6825C130.084 64.5611 130.061 64.4407 130.015 64.3283C129.969 64.216 129.901 64.1139 129.816 64.028C129.73 63.9422 129.628 63.8743 129.515 63.8283C129.403 63.7824 129.283 63.7592 129.161 63.7603C129.04 63.7613 128.92 63.7866 128.808 63.8345C128.697 63.8824 128.596 63.9521 128.511 64.0394L121.197 71.3537C121.031 71.5261 120.938 71.7571 120.941 71.9968C120.943 72.2365 121.039 72.4658 121.208 72.6353C121.378 72.8049 121.607 72.901 121.847 72.9031C122.087 72.9052 122.318 72.813 122.49 72.6465Z" fill="#8590A2"/>
</g>
<defs>
<clipPath id="clip0_3785_2365">
<rect width="18.2858" height="18.2858" fill="white" transform="translate(112.701 62.8572)"/>
</clipPath>
</defs>
</svg>
