<svg width="160" height="64" viewBox="0 0 160 64" fill="none" xmlns="http://www.w3.org/2000/svg">
<g clip-path="url(#clip0_462_1516)">
<path d="M55.2745 31.925C55.2745 45.14 44.4695 55.85 31.1373 55.85C17.805 55.85 7 45.14 7 31.925C7 18.71 17.805 8 31.1373 8C44.4695 8 55.2745 18.71 55.2745 31.925Z" fill="white"/>
<path d="M42.4872 30.2601C38.6434 27.6726 33.7251 28.7301 31.1449 32.6151C28.996 35.8701 25.7424 36.2751 24.4864 36.2751C20.3702 36.2751 17.5705 33.4101 16.7307 30.4476C16.7307 30.4476 16.7155 30.3876 16.708 30.3651C16.7004 30.3351 16.6928 30.2976 16.6853 30.2676C16.3599 29.0301 16.2767 28.4376 16.2767 27.1251C16.2767 20.0376 23.6162 12.1476 34.1715 12.1476C44.7268 12.1476 51.1811 20.3076 52.7776 24.8451C52.7474 24.7626 52.7171 24.6801 52.6944 24.6051C49.6148 15.7251 41.1252 9.3501 31.1298 9.3501C18.5542 9.3501 8.35449 19.4526 8.35449 31.9251C8.35449 43.0701 16.4658 52.6101 27.7173 52.6101C36.6912 52.6101 42.7217 47.6226 45.4835 40.7526C47.0044 36.9951 45.9299 32.5776 42.4872 30.2601Z" fill="#003964"/>
<path d="M52.9065 25.2801C51.5748 20.8551 45.3399 12.1401 34.1566 12.1401C23.5937 12.1401 16.2617 20.0301 16.2617 27.1176C16.2617 28.4301 16.3449 29.0226 16.6703 30.2601C16.5341 29.7201 16.466 29.1801 16.466 28.6476C16.466 21.2676 23.9191 16.1601 31.5764 16.1601C41.9501 16.1601 50.3565 24.4926 50.3565 34.7751C50.3565 42.8301 45.6804 49.8126 38.8857 53.1651C47.6477 50.0226 53.9053 41.7051 53.9053 31.9326C53.9053 29.6226 53.595 27.5826 52.9065 25.2876" fill="#ED1A3B"/>
<path d="M31.1376 54.5001C43.716 54.5001 53.9129 44.3929 53.9129 31.9251C53.9129 19.4573 43.716 9.3501 31.1376 9.3501C18.5591 9.3501 8.3623 19.4573 8.3623 31.9251C8.3623 44.3929 18.5591 54.5001 31.1376 54.5001Z" stroke="#00AEEF" stroke-width="0.25" stroke-miterlimit="10"/>
</g>
<path d="M141.396 27.459C141.221 25.7891 139.873 24.793 137.734 24.793C135.508 24.793 134.277 25.8184 134.248 27.2246C134.219 28.748 135.83 29.4512 137.646 29.8613L139.551 30.3301C143.184 31.1504 145.908 32.9961 145.908 36.541C145.908 40.4375 142.861 42.8984 137.705 42.8984C132.578 42.8984 129.297 40.5254 129.18 35.9844H133.457C133.604 38.123 135.303 39.207 137.646 39.207C139.961 39.207 141.455 38.123 141.455 36.541C141.455 35.1055 140.137 34.4316 137.822 33.8457L135.508 33.2891C131.934 32.4102 129.736 30.623 129.736 27.5176C129.736 23.6504 133.135 21.1016 137.764 21.1016C142.451 21.1016 145.557 23.709 145.615 27.459H141.396Z" fill="#515151"/>
<path d="M116.318 42.6055H108.848V21.3945H116.406C122.793 21.3945 126.689 25.3789 126.689 31.9707C126.689 38.6211 122.793 42.6055 116.318 42.6055ZM113.242 38.8262H116.143C120.186 38.8262 122.295 36.7168 122.295 31.9707C122.295 27.2539 120.186 25.1738 116.172 25.1738H113.242V38.8262Z" fill="#515151"/>
<path d="M89.8926 42.6055V21.3945H98.2129C103.047 21.3945 105.801 24.1191 105.801 28.3086C105.801 31.209 104.468 33.3184 102.051 34.3438L106.562 42.6055H101.699L97.6562 35.0762H94.2871V42.6055H89.8926ZM94.2871 31.502H97.3926C100 31.502 101.26 30.418 101.26 28.3086C101.26 26.1699 100 24.998 97.3926 24.998H94.2871V31.502Z" fill="#515151"/>
<path d="M70 42.6055V21.3945H74.3945V30.7988H74.6875L82.3926 21.3945H87.6953L79.7852 30.8867L87.7832 42.6055H82.5098L76.6211 33.8457L74.3945 36.541V42.6055H70Z" fill="#515151"/>
<defs>
<clipPath id="clip0_462_1516">
<rect width="49" height="48" fill="white" transform="translate(7 8)"/>
</clipPath>
</defs>
</svg>
