<svg width="160" height="64" viewBox="0 0 160 64" fill="none" xmlns="http://www.w3.org/2000/svg">
<g clip-path="url(#clip0_462_1517)">
<path fill-rule="evenodd" clip-rule="evenodd" d="M35.0455 31.2045C35.4848 31.6438 35.4848 32.3562 35.0455 32.7955L23.7955 44.0455C23.3562 44.4848 22.6438 44.4848 22.2045 44.0455C21.7652 43.6062 21.7652 42.8938 22.2045 42.4545L33.4545 31.2045C33.8938 30.7652 34.6062 30.7652 35.0455 31.2045Z" fill="black"/>
<path fill-rule="evenodd" clip-rule="evenodd" d="M32.7955 18.8295C33.2348 19.2688 33.2348 19.9812 32.7955 20.4205L11.4205 41.7955C10.9812 42.2348 10.2688 42.2348 9.8295 41.7955C9.39017 41.3562 9.39017 40.6438 9.8295 40.2045L31.2045 18.8295C31.6438 18.3902 32.3562 18.3902 32.7955 18.8295Z" fill="black"/>
</g>
<path d="M141.559 37.9414V27.3359H144.449V37.9414H141.559ZM143.004 25.9492C142.125 25.9492 141.422 25.2852 141.422 24.4844C141.422 23.6641 142.125 23 143.004 23C143.863 23 144.566 23.6641 144.566 24.4844C144.566 25.2852 143.863 25.9492 143.004 25.9492Z" fill="#252525"/>
<path d="M136.422 33.4297V27.3359H139.312V37.9414H136.539V36.0273H136.422C135.934 37.2578 134.801 38.0781 133.199 38.0781C131.07 38.0781 129.625 36.5742 129.625 34.0938V27.3359H132.516V33.5859C132.516 34.8359 133.238 35.6367 134.371 35.6367C135.426 35.6367 136.422 34.875 136.422 33.4297Z" fill="#252525"/>
<path d="M128.492 23.1367L121.23 40.0703H118.73L125.992 23.1367H128.492Z" fill="#252525"/>
<path d="M110.801 31.8086V37.9414H107.91V27.3359H110.664V29.1914H110.781C111.27 27.9609 112.402 27.1992 113.965 27.1992C116.172 27.1992 117.637 28.7031 117.617 31.1836V37.9414H114.746V31.6914C114.746 30.3828 114.023 29.6016 112.832 29.6016C111.621 29.6016 110.801 30.4023 110.801 31.8086Z" fill="#252525"/>
<path d="M101.406 38.1562C98.1641 38.1562 96.2109 35.9102 96.2109 32.668C96.2109 29.4258 98.1836 27.1992 101.406 27.1992C104.141 27.1992 105.996 28.8008 106.113 31.2227H103.398C103.223 30.168 102.539 29.4453 101.445 29.4453C100.059 29.4453 99.1406 30.6172 99.1406 32.6289C99.1406 34.6797 100.039 35.8516 101.445 35.8516C102.461 35.8516 103.223 35.2266 103.398 34.0938H106.113C105.977 36.4961 104.219 38.1562 101.406 38.1562Z" fill="#252525"/>
<path d="M88.3203 38.1172C85.8984 38.1172 84.0039 36.1836 84.0039 32.6484C84.0039 29.0156 85.9766 27.1992 88.3203 27.1992C90.0977 27.1992 90.9375 28.2539 91.3281 29.1133H91.4258V23.8008H94.3164V37.9414H91.4648V36.2422H91.3281C90.918 37.1211 90.0391 38.1172 88.3203 38.1172ZM89.2188 35.8125C90.6641 35.8125 91.4844 34.543 91.4844 32.6289C91.4844 30.7148 90.6641 29.5039 89.2188 29.5039C87.7539 29.5039 86.9727 30.7734 86.9727 32.6289C86.9727 34.5039 87.7539 35.8125 89.2188 35.8125Z" fill="#252525"/>
<path d="M72.7539 34.9727C72.7539 32.6094 74.668 31.8281 76.6992 31.7109C77.4609 31.6621 78.8867 31.5938 79.3359 31.5742V30.7148C79.3164 29.8359 78.7109 29.3086 77.6367 29.3086C76.6602 29.3086 76.0352 29.7578 75.8789 30.4805H73.125C73.3008 28.6445 74.9023 27.1992 77.7148 27.1992C80.0195 27.1992 82.207 28.2344 82.207 30.793V37.9414H79.4727V36.4766H79.3945C78.8672 37.4531 77.8711 38.1367 76.2891 38.1367C74.2578 38.1367 72.7539 37.082 72.7539 34.9727ZM75.5273 34.8945C75.5273 35.7148 76.1914 36.1445 77.1094 36.1445C78.418 36.1445 79.3555 35.2656 79.3359 34.1523V33.3711C78.8965 33.3906 77.666 33.459 77.168 33.5078C76.1719 33.6055 75.5273 34.0742 75.5273 34.8945Z" fill="#252525"/>
<path d="M64.1602 31.8086V37.9414H61.2695V23.8008H64.082V29.1914H64.1992C64.6875 27.9609 65.7617 27.1992 67.3633 27.1992C69.5703 27.1992 71.0352 28.6836 71.0352 31.1836V37.9414H68.1445V31.6914C68.1445 30.3828 67.4414 29.6016 66.2305 29.6016C65.0195 29.6016 64.1602 30.4023 64.1602 31.8086Z" fill="#252525"/>
<path d="M56.543 30.4805C56.4258 29.7383 55.7617 29.25 54.8047 29.25C53.8672 29.25 53.1445 29.6992 53.1641 30.3438C53.1445 30.8125 53.5352 31.1836 54.5312 31.3984L56.4258 31.7891C58.4766 32.2188 59.4727 33.1367 59.4922 34.6602C59.4727 36.75 57.5977 38.1562 54.7852 38.1562C51.9141 38.1562 50.2344 36.8672 50 34.7969H52.9102C53.0469 35.6367 53.7305 36.0664 54.7852 36.0664C55.8398 36.0664 56.543 35.6367 56.543 34.9531C56.543 34.4062 56.0938 34.0742 55.0977 33.8594L53.3398 33.5078C51.3281 33.1172 50.2734 32.0625 50.293 30.5C50.2734 28.4688 52.0312 27.1992 54.7656 27.1992C57.4414 27.1992 59.1016 28.4688 59.2578 30.4805H56.543Z" fill="#252525"/>
<defs>
<clipPath id="clip0_462_1517">
<rect width="36" height="36" fill="white" transform="translate(5 14)"/>
</clipPath>
</defs>
</svg>
