<svg width="24" height="24" viewBox="0 0 24 24" fill="none" xmlns="http://www.w3.org/2000/svg">
<g clip-path="url(#clip0_193_2750)">
<path d="M5.92696 12.497C7.98996 12.054 7.70896 9.588 7.64696 9.049C7.54596 8.219 6.56896 6.767 5.24196 6.882C3.57196 7.032 3.32896 9.443 3.32896 9.443C3.10296 10.558 3.86896 12.94 5.92696 12.497V12.497ZM8.11695 16.785C8.05695 16.958 7.92195 17.401 8.03895 17.787C8.26895 18.653 9.02096 18.692 9.02096 18.692H10.101V16.052H8.94396C8.42396 16.206 8.17395 16.611 8.11695 16.785V16.785ZM9.75496 8.363C10.895 8.363 11.815 7.051 11.815 5.43C11.815 3.81 10.895 2.5 9.75496 2.5C8.61796 2.5 7.69496 3.81 7.69496 5.43C7.69496 7.051 8.61796 8.363 9.75496 8.363ZM14.663 8.556C16.185 8.754 17.164 7.129 17.359 5.897C17.558 4.667 16.575 3.239 15.497 2.993C14.417 2.745 13.068 4.476 12.945 5.603C12.798 6.983 13.142 8.361 14.663 8.556V8.556ZM14.663 12.004C12.798 9.099 10.15 10.281 9.26295 11.759C8.38195 13.236 7.00695 14.169 6.81195 14.417C6.61395 14.661 3.96595 16.09 4.55395 18.701C5.14095 21.31 7.20596 21.261 7.20596 21.261C7.20596 21.261 8.72695 21.411 10.492 21.015C12.258 20.624 13.778 21.113 13.778 21.113C13.778 21.113 17.903 22.493 19.031 19.835C20.159 17.175 18.394 15.797 18.394 15.797C18.394 15.797 16.038 13.974 14.662 12.004H14.663ZM8.65495 19.754C7.49695 19.523 7.03596 18.733 6.97796 18.598C6.92096 18.461 6.59195 17.826 6.76595 16.745C7.26595 15.126 8.69296 15.01 8.69296 15.01H10.121V13.255L11.336 13.275V19.754H8.65596H8.65495ZM13.245 19.735C12.049 19.427 11.994 18.577 11.994 18.577V15.165L13.245 15.145V18.211C13.322 18.539 13.728 18.598 13.728 18.598H14.999V15.165H16.331V19.735H13.245V19.735ZM20.699 10.625C20.699 10.035 20.209 8.261 18.394 8.261C16.575 8.261 16.332 9.936 16.332 11.12C16.332 12.25 16.427 13.827 18.686 13.777C20.946 13.727 20.699 11.217 20.699 10.625V10.625Z" fill="#2D2D2D"/>
</g>
<defs>
<clipPath id="clip0_193_2750">
<rect width="24" height="24" fill="white"/>
</clipPath>
</defs>
</svg>
