<svg width="24" height="24" viewBox="0 0 24 24" fill="none" xmlns="http://www.w3.org/2000/svg">
<path fill-rule="evenodd" clip-rule="evenodd" d="M1.93344 0H22.0666C23.1344 0 24 0.865631 24 1.93344V22.0666C24 23.1344 23.1344 24 22.0666 24H1.93344C0.865631 24 0 23.1344 0 22.0666V1.93344C0 0.865631 0.865631 0 1.93344 0ZM2.66309 11.0491C2.66309 7.00368 6.81125 3.72432 11.9285 3.72432C17.0453 3.72432 21.194 7.00416 21.194 11.0491C21.194 15.0941 17.0458 18.3739 11.9285 18.3739C11.3405 18.3739 10.766 18.3302 10.2087 18.2477C9.18197 18.9461 6.80213 20.5637 6.64277 20.6698C6.43973 20.8056 6.12965 20.8123 6.25493 20.3083C6.35669 19.9022 6.86453 18.0048 7.05845 17.281C4.42085 15.9898 2.66309 13.6824 2.66309 11.0491ZM5.49059 8.892H8.19971C8.45459 8.892 8.66098 9.0984 8.66098 9.3528C8.66098 9.6072 8.45459 9.8136 8.19971 9.8136H7.36787V13.0594C7.36787 13.1779 7.31987 13.2936 7.23538 13.3776C7.15235 13.4611 7.03715 13.5091 6.91906 13.5091H6.82066C6.70211 13.5091 6.58643 13.4611 6.50387 13.3776C6.41939 13.2936 6.37139 13.1774 6.37139 13.0594V9.8136H5.49059C5.23619 9.8136 5.02979 9.6072 5.02979 9.3528C5.02979 9.0984 5.23571 8.892 5.49059 8.892ZM14.7119 12.6422H13.4519V9.32736C13.4519 9.05088 13.2282 8.8272 12.9522 8.8272C12.6762 8.8272 12.4525 9.05088 12.4525 9.32736V12.9005C12.4525 12.9283 12.4559 12.9542 12.4602 12.9806C12.4554 13.0066 12.4525 13.0334 12.4525 13.0603C12.4525 13.2917 12.6392 13.4789 12.8706 13.4789H14.7119C14.9437 13.4789 15.13 13.2917 15.13 13.0603C15.13 12.829 14.9432 12.6422 14.7119 12.6422ZM17.3342 10.9502L18.7382 12.7944C18.8865 12.9922 18.8467 13.2725 18.6494 13.4208C18.4521 13.5701 18.1713 13.5293 18.0235 13.332L16.6953 11.5891L16.4097 11.8742V13.0104C16.4097 13.2874 16.1865 13.5106 15.91 13.5106C15.6335 13.5106 15.4099 13.2869 15.4099 13.0104V9.32736C15.4099 9.05088 15.634 8.8272 15.91 8.8272C16.186 8.8272 16.4097 9.05088 16.4097 9.32736V10.6296L17.9803 9.05904C18.1526 8.8872 18.431 8.8872 18.6028 9.05904C18.7747 9.23088 18.7747 9.50976 18.6028 9.68112L17.3342 10.9502ZM12.0776 12.9139L10.7274 9.21984C10.7274 9.21984 10.724 9.21696 10.723 9.21552C10.6366 8.9904 10.3875 8.82672 10.0904 8.82672C9.76064 8.82672 9.488 9.02832 9.43376 9.29184C9.42464 9.31153 9.41552 9.3312 9.40784 9.35232L8.08016 12.9139C7.99808 13.1477 8.12096 13.403 8.35376 13.4851C8.58704 13.5672 8.84288 13.4443 8.92496 13.211L9.15488 12.5554H11.0029L11.2323 13.211C11.3144 13.4443 11.5702 13.5672 11.8035 13.4851C12.0368 13.403 12.1597 13.1477 12.0776 12.9139ZM9.44816 11.7178L10.0693 9.9456C10.0713 9.9456 10.0732 9.94575 10.0751 9.94597C10.0765 9.94614 10.078 9.94635 10.0794 9.94656C10.0826 9.94704 10.0858 9.94752 10.0894 9.94752L10.7101 11.7178H9.44864H9.44816Z" fill="#2D2D2D"/>
</svg>
