<svg width="24" height="24" viewBox="0 0 24 24" fill="none" xmlns="http://www.w3.org/2000/svg">
<g clip-path="url(#clip0_193_2890)">
<path d="M11.9999 6.65401C12.8096 7.28955 13.464 8.10096 13.9138 9.02681C14.3636 9.95266 14.5968 10.9687 14.5959 11.998C14.5965 13.027 14.3631 14.0426 13.9134 14.9681C13.4636 15.8936 12.8093 16.7047 11.9999 17.34C11.1903 16.7046 10.5359 15.8933 10.0862 14.9677C9.63644 14.042 9.40312 13.0262 9.40388 11.997C9.40312 10.9679 9.63644 9.95203 10.0862 9.02636C10.5359 8.1007 11.1903 7.28945 11.9999 6.65401V6.65401ZM11.1299 6.07201C10.2728 6.80358 9.58486 7.71253 9.11351 8.73603C8.64216 9.75954 8.39867 10.8732 8.39988 12C8.39872 13.1263 8.64203 14.2395 9.11302 15.2626C9.58401 16.2858 10.2715 17.1945 11.1279 17.926C10.0933 18.5068 8.92466 18.8067 7.73822 18.7959C6.55178 18.7851 5.38884 18.4639 4.36498 17.8643C3.34113 17.2648 2.49203 16.4077 1.90208 15.3783C1.31214 14.3488 1.0019 13.1829 1.0022 11.9964C1.0025 10.81 1.31333 9.64421 1.9038 8.61508C2.49426 7.58596 3.3438 6.72929 4.36795 6.13024C5.39211 5.5312 6.55522 5.21063 7.74166 5.20042C8.9281 5.1902 10.0966 5.49069 11.1309 6.07201H11.1299ZM12.8719 17.926C13.7283 17.1945 14.4158 16.2858 14.8867 15.2626C15.3577 14.2395 15.601 13.1263 15.5999 12C15.6011 10.8732 15.3576 9.75954 14.8863 8.73603C14.4149 7.71253 13.7269 6.80358 12.8699 6.07201C13.9042 5.49069 15.0727 5.1902 16.2591 5.20042C17.4455 5.21063 18.6087 5.5312 19.6328 6.13024C20.657 6.72929 21.5065 7.58596 22.097 8.61508C22.6874 9.64421 22.9983 10.81 22.9986 11.9964C22.9989 13.1829 22.6886 14.3488 22.0987 15.3783C21.5087 16.4077 20.6596 17.2648 19.6358 17.8643C18.6119 18.4639 17.449 18.7851 16.2625 18.7959C15.0761 18.8067 13.9075 18.5068 12.8729 17.926H12.8719Z" fill="#2D2D2D"/>
</g>
<defs>
<clipPath id="clip0_193_2890">
<rect width="24" height="24" fill="white"/>
</clipPath>
</defs>
</svg>
