<svg width="24" height="24" viewBox="0 0 24 24" fill="none" xmlns="http://www.w3.org/2000/svg">
<path d="M13.5168 8.3017C13.5168 8.3017 11.4656 8.30169 9.60379 10.0542V3H5V21.5356H9.64937V20.0847C9.64937 20.0847 10.7468 22 13.5133 22C13.5133 22 20 21.7695 20 15.0814C20 15.0814 19.7616 8.3017 13.5133 8.3017H13.5168ZM12.5035 18.0847C10.8696 18.0847 9.54418 16.8034 9.54418 15.2237C9.54418 13.6441 10.8696 12.3661 12.5035 12.3661C14.1374 12.3661 15.4593 13.6475 15.4593 15.2237C15.4593 16.8 14.1339 18.0847 12.5035 18.0847Z" fill="#2D2D2D"/>
</svg>
