<svg width="24" height="24" viewBox="0 0 24 24" fill="none" xmlns="http://www.w3.org/2000/svg">
<path fill-rule="evenodd" clip-rule="evenodd" d="M19.4158 3.375H4.58415C3.08797 3.375 1.875 4.58797 1.875 6.08415V14.8868C1.875 16.3829 3.08797 17.5959 4.58415 17.5959H9.82223L11.6045 21.7941C11.6045 21.7941 11.7275 22.1574 12.0236 22.1574C12.3211 22.1574 12.4427 21.7941 12.4427 21.7941L14.225 17.5959H19.4158C20.912 17.5959 22.125 16.3829 22.125 14.8868V6.08415C22.125 4.58797 20.912 3.375 19.4158 3.375ZM8.23737 11.1563C8.22878 12.7655 6.56524 12.8113 6.56524 12.8113C5.92157 12.8113 5.55825 12.385 5.55825 12.385V12.6754H4.34671V7.67761C4.42252 7.68905 5.55825 7.67475 5.55825 7.67475V9.58574C5.8429 9.09941 6.6668 9.10799 6.6668 9.10799C8.4605 9.27535 8.23593 11.1563 8.23593 11.1563H8.23737ZM4.34671 7.67475C4.34099 7.67618 4.34671 7.67761 4.34671 7.67761V7.67475ZM10.3701 9.26248V12.684H9.18428V9.2968C9.18428 8.83622 8.61213 8.70749 8.61213 8.70749V7.51311C10.506 7.59035 10.3701 9.26248 10.3701 9.26248ZM13.1808 12.8141C12.0822 12.8141 11.1925 11.9945 11.1925 10.9847C11.1925 9.97481 12.0822 9.1552 13.1808 9.1552C14.2793 9.1552 15.169 9.97481 15.169 10.9847C15.169 11.9945 14.2793 12.8141 13.1808 12.8141ZM19.6776 12.8141C19.6776 12.8141 19.6948 14.552 17.9282 14.552H17.3904V13.4263H17.7151C17.7151 13.4263 18.4575 13.495 18.4489 12.3507C18.4489 12.3507 18.3044 12.8141 17.2631 12.8141C17.2631 12.8141 15.787 12.7083 15.787 11.2679V10.7215C15.787 10.7215 15.8213 9.22815 17.4419 9.10942C17.4419 9.10942 18.0813 9.04077 18.4746 9.57001V9.20383H19.6776V12.8141ZM12.4299 10.9832C12.4299 10.5684 12.7661 10.2323 13.1809 10.2323C13.5957 10.2323 13.9318 10.5684 13.9318 10.9832C13.9318 11.398 13.5957 11.7342 13.1809 11.7342C12.7661 11.7342 12.4299 11.398 12.4299 10.9832ZM5.5968 11.0018C5.5968 10.617 5.90863 10.3052 6.2934 10.3052C6.67818 10.3052 6.99 10.6156 6.99 11.0018C6.99 11.388 6.67818 11.6999 6.2934 11.6999C5.90863 11.6999 5.5968 11.3866 5.5968 11.0018ZM17.0585 10.9832C17.0585 10.5784 17.3875 10.2494 17.7923 10.2494C18.1971 10.2494 18.5261 10.5784 18.5261 10.9832C18.5261 11.388 18.1971 11.717 17.7923 11.717C17.3875 11.717 17.0585 11.388 17.0585 10.9832Z" fill="#2D2D2D"/>
</svg>
