<svg width="24" height="24" viewBox="0 0 24 24" fill="none" xmlns="http://www.w3.org/2000/svg">
<g clip-path="url(#clip0_193_2942)">
<path d="M13.3701 2.094C10.9774 1.76486 8.54634 2.31255 6.52592 3.63596C4.5055 4.95937 3.03214 6.9691 2.3779 9.29407C1.72365 11.619 1.9327 14.1022 2.96646 16.2851C4.00021 18.4679 5.78885 20.203 8.0021 21.17C7.94224 20.4018 7.99718 19.629 8.1651 18.877C8.3501 18.038 9.4611 13.414 9.4611 13.414C9.23986 12.9181 9.1293 12.38 9.1371 11.837C9.1371 10.352 9.9941 9.244 11.0601 9.244C11.2516 9.24121 11.4415 9.2797 11.6168 9.35683C11.7921 9.43397 11.9487 9.54795 12.076 9.69102C12.2034 9.8341 12.2984 10.0029 12.3547 10.186C12.4109 10.3691 12.4271 10.5621 12.4021 10.752C12.4021 11.652 11.8241 13.014 11.5221 14.292C11.4624 14.5264 11.4586 14.7715 11.511 15.0076C11.5635 15.2437 11.6706 15.4642 11.8239 15.6513C11.9771 15.8384 12.1722 15.9869 12.3933 16.0848C12.6145 16.1828 12.8556 16.2273 13.0971 16.215C14.9951 16.215 16.2671 13.784 16.2671 10.914C16.2671 8.714 14.8101 7.066 12.1241 7.066C11.4815 7.04103 10.8405 7.14692 10.24 7.37725C9.63958 7.60759 9.09221 7.95755 8.63115 8.40589C8.17008 8.85423 7.80495 9.3916 7.55792 9.98537C7.31089 10.5791 7.18711 11.2169 7.1941 11.86C7.16546 12.5733 7.3956 13.273 7.8421 13.83C7.92553 13.8923 7.98645 13.98 8.01567 14.0799C8.04489 14.1799 8.04083 14.2866 8.0041 14.384C7.9581 14.568 7.8421 15.007 7.7961 15.168C7.78653 15.2226 7.76427 15.2742 7.73112 15.3186C7.69797 15.363 7.65484 15.3991 7.60523 15.4238C7.55561 15.4485 7.50088 15.4612 7.44545 15.4609C7.39002 15.4606 7.33544 15.4473 7.2861 15.422C5.9021 14.868 5.2501 13.345 5.2501 11.606C5.2501 8.759 7.6341 5.351 12.4041 5.351C16.2001 5.351 18.7241 8.128 18.7241 11.098C18.7241 15.007 16.5471 17.946 13.3301 17.946C12.8493 17.9614 12.3724 17.8553 11.9434 17.6375C11.5145 17.4197 11.1474 17.0973 10.8761 16.7C10.8761 16.7 10.2981 19.016 10.1841 19.454C9.95139 20.2107 9.608 20.9288 9.1651 21.585C10.0881 21.865 11.0471 22.005 12.0111 22.001C13.3247 22.0021 14.6256 21.744 15.8393 21.2416C17.053 20.7392 18.1556 20.0023 19.0842 19.0731C20.0127 18.1439 20.7488 17.0408 21.2504 15.8267C21.7519 14.6126 22.0091 13.3116 22.0071 11.998C22.0059 9.583 21.1309 7.25 19.5437 5.42978C17.9566 3.60956 15.7644 2.42507 13.3721 2.095L13.3701 2.094Z" fill="#2D2D2D"/>
</g>
<defs>
<clipPath id="clip0_193_2942">
<rect width="24" height="24" fill="white"/>
</clipPath>
</defs>
</svg>
