<svg width="24" height="24" viewBox="0 0 24 24" fill="none" xmlns="http://www.w3.org/2000/svg">
<g clip-path="url(#clip0_193_2962)">
<path d="M14.448 16.24C13.9125 17.0014 13.329 17.7279 12.701 18.415C14.373 20.038 15.929 20.798 16.791 20.299C17.655 19.801 17.774 18.074 17.205 15.815C16.352 16.005 15.425 16.149 14.448 16.24V16.24ZM13.138 16.327C12.3797 16.3584 11.6203 16.3584 10.862 16.327C11.239 16.819 11.62 17.275 12 17.691C12.38 17.275 12.76 16.819 13.138 16.327ZM18.178 8.433C20.843 9.197 22.583 10.467 22.583 12C22.583 13.533 20.843 14.803 18.178 15.567C18.848 18.257 18.619 20.399 17.292 21.165C15.964 21.932 13.994 21.06 12 19.135C10.006 21.06 8.03599 21.932 6.70799 21.165C5.38099 20.399 5.15099 18.257 5.82199 15.567C3.15699 14.803 1.41699 13.533 1.41699 12C1.41699 10.467 3.15699 9.197 5.82199 8.433C5.15199 5.743 5.38099 3.60101 6.70799 2.83501C8.03599 2.06801 10.006 2.94001 12 4.86501C13.994 2.94001 15.964 2.06801 17.292 2.83501C18.619 3.60101 18.849 5.743 18.178 8.433V8.433ZM17.205 8.18501C17.775 5.92501 17.655 4.19901 16.792 3.70101C15.929 3.20201 14.373 3.96201 12.702 5.58501C13.293 6.22801 13.881 6.95901 14.448 7.76001C15.426 7.85001 16.352 7.99401 17.205 8.18501ZM6.79499 15.815C6.22499 18.075 6.34499 19.801 7.20799 20.299C8.07099 20.798 9.62699 20.038 11.298 18.415C10.6703 17.7279 10.0871 17.0014 9.55199 16.24C8.62489 16.1571 7.70402 16.0152 6.79499 15.815V15.815ZM10.862 7.67301C11.6203 7.64161 12.3797 7.64161 13.138 7.67301C12.7785 7.20247 12.3988 6.74771 12 6.31001C11.62 6.72601 11.24 7.18201 10.862 7.67401V7.67301ZM9.55199 7.76001C10.0878 6.99855 10.6716 6.27207 11.3 5.58501C9.62699 3.96201 8.06999 3.20201 7.20899 3.70101C6.34499 4.19901 6.22599 5.92601 6.79499 8.18501C7.64799 7.99501 8.57499 7.85101 9.55199 7.76001V7.76001ZM13.894 15.28C14.6058 14.2354 15.2386 13.139 15.787 12C15.2386 10.861 14.6058 9.76465 13.894 8.72001C12.6331 8.6256 11.3669 8.6256 10.106 8.72001C9.39415 9.76465 8.76139 10.861 8.21299 12C8.76139 13.139 9.39415 14.2354 10.106 15.28C11.3669 15.3744 12.6331 15.3744 13.894 15.28V15.28ZM15.178 15.149C15.793 15.069 16.378 14.966 16.928 14.845C16.7481 14.2808 16.5439 13.7246 16.316 13.178C15.964 13.8501 15.5843 14.5073 15.178 15.148V15.149ZM8.82199 8.85001C8.20699 8.93001 7.62199 9.03301 7.07199 9.15401C7.24199 9.69001 7.44599 10.248 7.68399 10.821C8.036 10.1489 8.41566 9.4917 8.82199 8.85101V8.85001ZM7.07199 14.844C7.62199 14.965 8.20699 15.067 8.82199 15.148C8.41566 14.5073 8.036 13.8501 7.68399 13.178C7.44599 13.75 7.24199 14.308 7.07199 14.844ZM6.09399 14.599C6.35499 13.765 6.69399 12.891 7.10399 11.999C6.69399 11.107 6.35499 10.233 6.09399 9.39901C3.85199 10.036 2.41699 11.003 2.41699 11.999C2.41699 12.995 3.85199 13.962 6.09399 14.599ZM16.928 9.15401C16.378 9.03301 15.793 8.93101 15.178 8.85001C15.5843 9.4907 15.964 10.1479 16.316 10.82C16.554 10.248 16.758 9.69001 16.928 9.15401V9.15401ZM17.906 9.39901C17.645 10.233 17.306 11.107 16.896 11.999C17.306 12.891 17.645 13.765 17.906 14.599C20.148 13.962 21.583 12.995 21.583 11.999C21.583 11.003 20.148 10.036 17.906 9.39901ZM12 13.88C11.7531 13.88 11.5086 13.8314 11.2805 13.7369C11.0525 13.6424 10.8452 13.5039 10.6706 13.3294C10.4961 13.1548 10.3576 12.9475 10.2631 12.7195C10.1686 12.4914 10.12 12.2469 10.12 12C10.12 11.7531 10.1686 11.5087 10.2631 11.2806C10.3576 11.0525 10.4961 10.8452 10.6706 10.6706C10.8452 10.4961 11.0525 10.3576 11.2805 10.2631C11.5086 10.1686 11.7531 10.12 12 10.12C12.4986 10.12 12.9768 10.3181 13.3294 10.6706C13.6819 11.0232 13.88 11.5014 13.88 12C13.88 12.4986 13.6819 12.9768 13.3294 13.3294C12.9768 13.6819 12.4986 13.88 12 13.88V13.88Z" fill="#2D2D2D"/>
</g>
<defs>
<clipPath id="clip0_193_2962">
<rect width="24" height="24" fill="white"/>
</clipPath>
</defs>
</svg>
