<svg width="24" height="24" viewBox="0 0 24 24" fill="none" xmlns="http://www.w3.org/2000/svg">
<g clip-path="url(#clip0_193_3002)">
<path d="M18 20.002V14.67H20V22.003H4V14.67H6V20.003H18V20.002ZM7.599 14.736L7.912 12.756L16.749 14.456L16.636 16.042L7.599 14.736V14.736ZM8.799 10.204L9.531 8.604L17.529 12.337L16.796 13.936L8.798 10.204H8.799ZM11.064 6.272L12.197 4.939L18.995 10.604L17.862 11.937L11.064 6.272V6.272ZM15.396 2.14L20.661 9.204L19.261 10.271L13.997 3.206L15.397 2.14H15.396ZM7.332 18.668V16.668H16.662V18.668H7.332V18.668Z" fill="#2D2D2D"/>
</g>
<defs>
<clipPath id="clip0_193_3002">
<rect width="24" height="24" fill="white"/>
</clipPath>
</defs>
</svg>
