<svg width="24" height="24" viewBox="0 0 24 24" fill="none" xmlns="http://www.w3.org/2000/svg">
<g clip-path="url(#clip0_193_3018)">
<path d="M3.576 8.277L2.383 10.119L4.583 11.49C4.583 11.49 6.047 12.244 5.346 13.659C4.696 14.997 1.5 17.929 1.5 17.929L4.362 19.727C6.346 15.401 6.212 15.977 6.709 14.421C7.221 12.841 7.333 11.627 6.467 10.744C5.354 9.619 5.229 9.514 3.576 8.277V8.277ZM5.14 7.583C6.18 7.583 7.023 6.825 7.023 5.89C7.023 4.947 6.18 4.189 5.14 4.189C4.092 4.189 3.253 4.951 3.253 5.89C3.258 6.821 4.093 7.583 5.14 7.583V7.583ZM22.145 7.793C22.145 7.793 21.521 2.923 10.938 5.939C11.393 5.144 11.607 4.632 11.607 4.632L8.967 3.882C8.967 3.882 7.897 7.39 5.995 9.022C5.995 9.022 7.841 10.095 7.821 10.062C8.32273 9.55978 8.79264 9.02674 9.228 8.466C9.652 8.276 10.058 8.103 10.454 7.942C9.962 8.829 9.176 10.16 8.386 10.998L9.498 11.982C9.498 11.982 10.26 11.244 11.087 10.362H12.03V11.998H8.345V13.304H12.03V16.437L11.89 16.433C11.482 16.413 10.853 16.344 10.603 15.949C10.305 15.465 10.526 14.59 10.539 14.046H7.995L7.902 14.098C7.902 14.098 6.967 18.303 10.591 18.211C13.977 18.303 15.921 17.255 16.856 16.534L17.226 17.928L19.316 17.046L17.9 13.562L16.207 14.098L16.521 15.288C16.094 15.618 15.591 15.86 15.054 16.042V13.304H18.646V11.994H15.054V10.357H18.658V9.051H12.248C12.712 8.482 13.07 7.962 13.168 7.636L12.046 7.329C16.844 5.596 19.516 5.894 19.496 8.732V16.207C19.496 16.207 19.779 18.771 16.86 18.59L15.28 18.247L14.913 19.759C14.913 19.759 21.73 21.726 22.287 16.445C22.839 11.163 22.145 7.793 22.145 7.793V7.793Z" fill="#2D2D2D"/>
</g>
<defs>
<clipPath id="clip0_193_3018">
<rect width="24" height="24" fill="white"/>
</clipPath>
</defs>
</svg>
