<svg width="24" height="24" viewBox="0 0 24 24" fill="none" xmlns="http://www.w3.org/2000/svg">
<g clip-path="url(#clip0_193_3062)">
<path d="M5.457 18.185C3.358 16.677 2 14.4 2 11.908C2 7.323 6.475 3.6 12 3.6C17.525 3.6 22 7.323 22 11.908C22 16.492 17.525 20.215 12 20.215C10.8927 20.2216 9.79037 20.0663 8.728 19.754C8.636 19.724 8.512 19.724 8.42 19.724C8.235 19.724 8.05 19.784 7.895 19.877L5.704 21.138C5.64775 21.1722 5.58453 21.1934 5.519 21.2C5.42933 21.1995 5.34345 21.1638 5.27986 21.1005C5.21627 21.0373 5.18005 20.9517 5.179 20.862C5.179 20.769 5.209 20.708 5.241 20.615C5.271 20.585 5.549 19.569 5.704 18.954C5.704 18.892 5.734 18.8 5.734 18.738C5.734 18.492 5.642 18.308 5.457 18.185V18.185ZM8.667 10.511C9.384 10.511 9.952 9.943 9.952 9.226C9.952 8.508 9.384 7.94 8.667 7.94C7.949 7.94 7.382 8.508 7.382 9.226C7.382 9.943 7.949 10.511 8.667 10.511ZM15.333 10.511C16.051 10.511 16.618 9.943 16.618 9.226C16.618 8.508 16.051 7.94 15.333 7.94C14.616 7.94 14.048 8.508 14.048 9.226C14.048 9.943 14.616 10.511 15.333 10.511V10.511Z" fill="#2D2D2D"/>
</g>
<defs>
<clipPath id="clip0_193_3062">
<rect width="24" height="24" fill="white"/>
</clipPath>
</defs>
</svg>
