<svg width="24" height="24" viewBox="0 0 24 24" fill="none" xmlns="http://www.w3.org/2000/svg">
<g clip-path="url(#clip0_193_3102)">
<path d="M13.373 18.897H14.825L15.303 20.534L17.908 18.897H20.9781V5.395H13.373V18.897V18.897ZM14.918 6.86H19.4331V17.43H17.701L15.971 18.517L15.657 17.433L14.918 17.43V6.861V6.86ZM12.088 11.572H8.84605C8.9407 10.0539 8.98606 8.53307 8.98205 7.012H12.154C12.154 7.012 12.276 5.612 11.622 5.628H6.13505C6.35105 4.814 6.62305 3.973 6.94805 3.104C6.94805 3.104 5.45505 3.104 4.94805 4.443C4.73705 4.995 4.12805 7.12 3.04405 9.291C3.40905 9.251 4.61705 9.218 5.32805 7.913C5.45905 7.547 5.48405 7.5 5.64605 7.011H7.43605C7.43605 7.662 7.36205 11.162 7.33205 11.569H4.09205C3.36305 11.569 3.12705 13.035 3.12705 13.035H7.19305C6.92005 16.131 5.45605 18.74 2.80005 20.8C4.07005 21.163 5.33605 20.743 5.96205 20.186C5.96205 20.186 7.38705 18.889 8.16805 15.888L11.514 19.918C11.514 19.918 12.004 18.25 11.437 17.437C10.967 16.883 9.69705 15.385 9.15605 14.842L8.24905 15.562C8.51905 14.695 8.68205 13.852 8.73705 13.038H12.559C12.559 13.038 12.554 11.572 12.089 11.572H12.088Z" fill="#2D2D2D"/>
</g>
<defs>
<clipPath id="clip0_193_3102">
<rect width="24" height="24" fill="white"/>
</clipPath>
</defs>
</svg>
