<svg width="24" height="24" viewBox="0 0 24 24" fill="none" xmlns="http://www.w3.org/2000/svg">
<path fill-rule="evenodd" clip-rule="evenodd" d="M10.987 5.846C11.4543 5.30088 11.3912 4.48019 10.846 4.01294C10.3009 3.54569 9.48023 3.60882 9.01298 4.15395L3.01916 11.1467C2.82038 11.3751 2.70001 11.6734 2.70001 12C2.70001 12.3246 2.819 12.6214 3.01573 12.8492L9.01298 19.846C9.48023 20.3911 10.3009 20.4543 10.846 19.987C11.3912 19.5198 11.4543 18.6991 10.987 18.1539L6.82648 13.3H21C21.718 13.3 22.3 12.7179 22.3 12C22.3 11.282 21.718 10.7 21 10.7H6.82652L10.987 5.846Z" fill="black"/>
</svg>
