<svg width="24" height="24" viewBox="0 0 24 24" fill="none" xmlns="http://www.w3.org/2000/svg">
<path fill-rule="evenodd" clip-rule="evenodd" d="M4.30001 10.5C4.30001 7.07585 7.07585 4.30001 10.5 4.30001C13.9242 4.30001 16.7 7.07585 16.7 10.5C16.7 13.9242 13.9242 16.7 10.5 16.7C7.07585 16.7 4.30001 13.9242 4.30001 10.5ZM10.5 1.70001C5.63991 1.70001 1.70001 5.63991 1.70001 10.5C1.70001 15.3601 5.63991 19.3 10.5 19.3C12.4611 19.3 14.2724 18.6585 15.7354 17.5739L20.0808 21.9193C20.5885 22.4269 21.4116 22.4269 21.9193 21.9193C22.4269 21.4116 22.4269 20.5885 21.9193 20.0808L17.5739 15.7354C18.6585 14.2724 19.3 12.4611 19.3 10.5C19.3 5.63991 15.3601 1.70001 10.5 1.70001Z" fill="black"/>
</svg>
