<svg width="24" height="24" viewBox="0 0 24 24" fill="none" xmlns="http://www.w3.org/2000/svg">
<path d="M10.8721 2.70789C11.3265 1.76404 12.6735 1.76404 13.1279 2.70789L15.5073 7.64992C15.6897 8.02878 16.0509 8.29064 16.4684 8.34666L21.9141 9.0775C22.9541 9.21708 23.3703 10.4953 22.6111 11.2182L18.636 15.0033C18.3313 15.2935 18.1933 15.7172 18.2689 16.1307L19.2551 21.5244C19.4435 22.5545 18.3538 23.3445 17.4302 22.8474L12.594 20.2448C12.2232 20.0452 11.7768 20.0452 11.406 20.2448L6.56983 22.8474C5.64619 23.3445 4.55653 22.5545 4.74488 21.5244L5.73111 16.1307C5.80672 15.7172 5.66875 15.2935 5.36401 15.0033L1.38885 11.2182C0.629657 10.4953 1.04587 9.21708 2.08592 9.0775L7.53163 8.34666C7.9491 8.29064 8.31031 8.02878 8.49272 7.64992L10.8721 2.70789Z" fill="white"/>
</svg>
