<svg width="24" height="24" viewBox="0 0 24 24" fill="none" xmlns="http://www.w3.org/2000/svg">
<path d="M11.9999 7C14.7599 7 16.9999 9.24 16.9999 12C16.9999 12.64 16.8699 13.25 16.6499 13.82L18.1499 15.32C18.6899 14.33 18.9999 13.2 18.9999 12C18.9999 9.78 17.9699 7.81 16.3599 6.53L14.9999 2H8.99992L8.03992 5.21L10.1799 7.35C10.7499 7.13 11.3599 7 11.9999 7Z" fill="white"/>
<path d="M2.80989 2.81L1.38989 4.22L5.84989 8.68C5.30989 9.67 4.99989 10.8 4.99989 12C4.99989 14.22 6.02989 16.19 7.63989 17.47L8.99989 22H14.9999L15.9599 18.79L19.7799 22.61L21.1899 21.2L2.80989 2.81ZM11.9999 17C9.23989 17 6.99989 14.76 6.99989 12C6.99989 11.36 7.12989 10.75 7.34989 10.18L13.8199 16.65C13.2499 16.87 12.6399 17 11.9999 17Z" fill="white"/>
</svg>
