<svg width="24" height="24" viewBox="0 0 24 24" fill="none" xmlns="http://www.w3.org/2000/svg">
<path d="M12 3.60001C12.9941 3.60001 13.8 4.40589 13.8 5.40001C13.8 6.39412 12.9941 7.20001 12 7.20001C11.0059 7.20001 10.2 6.39412 10.2 5.40001C10.2 4.40589 11.0059 3.60001 12 3.60001Z" fill="#1D1D1D"/>
<path d="M12 10.2C12.9941 10.2 13.8 11.0059 13.8 12C13.8 12.9941 12.9941 13.8 12 13.8C11.0059 13.8 10.2 12.9941 10.2 12C10.2 11.0059 11.0059 10.2 12 10.2Z" fill="#1D1D1D"/>
<path d="M13.8 18.6C13.8 17.6059 12.9941 16.8 12 16.8C11.0059 16.8 10.2 17.6059 10.2 18.6C10.2 19.5941 11.0059 20.4 12 20.4C12.9941 20.4 13.8 19.5941 13.8 18.6Z" fill="#1D1D1D"/>
</svg>
