<svg width="16" height="16" viewBox="0 0 16 16" fill="none" xmlns="http://www.w3.org/2000/svg">
<path d="M7.99999 2.39999C8.66273 2.39999 9.19999 2.93725 9.19999 3.59999C9.19999 4.26274 8.66273 4.79999 7.99999 4.79999C7.33725 4.79999 6.79999 4.26274 6.79999 3.59999C6.79999 2.93725 7.33725 2.39999 7.99999 2.39999Z" fill="#2D2D2D"/>
<path d="M7.99999 6.79999C8.66273 6.79999 9.19999 7.33725 9.19999 7.99999C9.19999 8.66274 8.66273 9.19999 7.99999 9.19999C7.33725 9.19999 6.79999 8.66274 6.79999 7.99999C6.79999 7.33725 7.33725 6.79999 7.99999 6.79999Z" fill="#2D2D2D"/>
<path d="M9.19999 12.4C9.19999 11.7373 8.66273 11.2 7.99999 11.2C7.33725 11.2 6.79999 11.7373 6.79999 12.4C6.79999 13.0627 7.33725 13.6 7.99999 13.6C8.66273 13.6 9.19999 13.0627 9.19999 12.4Z" fill="#2D2D2D"/>
</svg>
