<svg width="24" height="24" viewBox="0 0 24 24" fill="none" xmlns="http://www.w3.org/2000/svg">
<path d="M23 4V10H17" stroke="#2D2D2D" stroke-width="1.6" stroke-linecap="round" stroke-linejoin="round"/>
<path d="M1 20V14H7" stroke="#2D2D2D" stroke-width="1.6" stroke-linecap="round" stroke-linejoin="round"/>
<path d="M3.51 8.99921C4.01717 7.56562 4.87913 6.2839 6.01547 5.27365C7.1518 4.2634 8.52547 3.55755 10.0083 3.22195C11.4911 2.88636 13.0348 2.93196 14.4952 3.3545C15.9556 3.77704 17.2853 4.56276 18.36 5.63833L23 9.99947M1 14.0005L5.64 18.3617C6.71475 19.4372 8.04437 20.223 9.50481 20.6455C10.9652 21.068 12.5089 21.1136 13.9917 20.7781C15.4745 20.4425 16.8482 19.7366 17.9845 18.7263C19.1209 17.7161 19.9828 16.4344 20.49 15.0008" stroke="#2D2D2D" stroke-width="1.6" stroke-linecap="round" stroke-linejoin="round"/>
</svg>
