<svg width="20" height="20" viewBox="0 0 20 20" fill="none" xmlns="http://www.w3.org/2000/svg">
<path d="M17 5V9H13" stroke="#2D2D2D" stroke-width="1.4" stroke-linecap="round" stroke-linejoin="round"/>
<path d="M3 15V11H7" stroke="#2D2D2D" stroke-width="1.4" stroke-linecap="round" stroke-linejoin="round"/>
<path d="M4.59727 7.99947C4.92002 7.04375 5.46854 6.18927 6.19166 5.51577C6.91478 4.84227 7.78893 4.3717 8.73255 4.14797C9.67616 3.92424 10.6585 3.95464 11.5878 4.23633C12.5172 4.51803 13.3633 5.04184 14.0473 5.75889L17 8.66632M3 11.3337L5.95273 14.2411C6.63666 14.9582 7.48278 15.482 8.41215 15.7637C9.34152 16.0454 10.3238 16.0758 11.2675 15.852C12.2111 15.6283 13.0852 15.1577 13.8083 14.4842C14.5315 13.8107 15.08 12.9563 15.4027 12.0005" stroke="#2D2D2D" stroke-width="1.4" stroke-linecap="round" stroke-linejoin="round"/>
</svg>
