<svg width="24" height="24" viewBox="0 0 24 24" fill="none" xmlns="http://www.w3.org/2000/svg">
<path d="M3.59998 12C3.59998 11.0059 4.40586 10.2 5.39998 10.2C6.39409 10.2 7.19998 11.0059 7.19998 12C7.19998 12.9941 6.39409 13.8 5.39998 13.8C4.40586 13.8 3.59998 12.9941 3.59998 12Z" fill="#2D2D2D"/>
<path d="M10.2 12C10.2 11.0059 11.0059 10.2 12 10.2C12.9941 10.2 13.8 11.0059 13.8 12C13.8 12.9941 12.9941 13.8 12 13.8C11.0059 13.8 10.2 12.9941 10.2 12Z" fill="#2D2D2D"/>
<path d="M18.6 10.2C17.6059 10.2 16.8 11.0059 16.8 12C16.8 12.9941 17.6059 13.8 18.6 13.8C19.5941 13.8 20.4 12.9941 20.4 12C20.4 11.0059 19.5941 10.2 18.6 10.2Z" fill="#2D2D2D"/>
</svg>
