<svg width="12" height="12" viewBox="0 0 12 12" fill="none" xmlns="http://www.w3.org/2000/svg">
<path d="M5.21457 2.05839C5.38178 1.1944 6.61821 1.1944 6.78542 2.05839L7.08061 3.58365C7.16054 3.99666 7.54668 4.27721 7.96418 4.2256L9.506 4.03501C10.3794 3.92705 10.7615 5.10297 9.99142 5.52898L8.63203 6.28105C8.26394 6.4847 8.11644 6.93864 8.29454 7.31975L8.95225 8.72722C9.32482 9.52449 8.32452 10.2512 7.68141 9.65054L6.54607 8.59009C6.23864 8.30294 5.76134 8.30294 5.45392 8.59009L4.31858 9.65054C3.67546 10.2512 2.67517 9.52449 3.04774 8.72722L3.70545 7.31975C3.88354 6.93864 3.73605 6.4847 3.36795 6.28105L2.00857 5.52898C1.23853 5.10297 1.62061 3.92705 2.49399 4.03501L4.03581 4.2256C4.45331 4.27721 4.83945 3.99666 4.91938 3.58365L5.21457 2.05839Z" fill="#E94A68"/>
</svg>
