<svg width="12" height="12" viewBox="0 0 12 12" fill="none" xmlns="http://www.w3.org/2000/svg">
<path d="M5.20742 1.63204C5.38838 0.78932 6.5908 0.78932 6.77176 1.63204L7.29522 4.06974C7.36131 4.37748 7.6017 4.61787 7.90943 4.68395L10.3471 5.20742C11.1899 5.38838 11.1899 6.5908 10.3471 6.77176L7.90943 7.29522C7.6017 7.36131 7.36131 7.6017 7.29522 7.90943L6.77176 10.3471C6.5908 11.1899 5.38838 11.1899 5.20742 10.3471L4.68395 7.90943C4.61787 7.6017 4.37748 7.36131 4.06974 7.29522L1.63204 6.77176C0.78932 6.5908 0.78932 5.38838 1.63204 5.20742L4.06974 4.68395C4.37748 4.61787 4.61787 4.37748 4.68395 4.06974L5.20742 1.63204Z" fill="#E94A68"/>
</svg>
