<svg width="28" height="28" viewBox="0 0 28 28" fill="none" xmlns="http://www.w3.org/2000/svg">
<path d="M14 4.66663C8.20101 4.66663 3.5 9.36764 3.5 15.1666C3.5 20.9656 8.20101 25.6666 14 25.6666C19.799 25.6666 24.5 20.9656 24.5 15.1666C24.5 9.36764 19.799 4.66663 14 4.66663Z" fill="#FAC3B2"/>
<path fill-rule="evenodd" clip-rule="evenodd" d="M14 9.33337C14.6443 9.33337 15.1667 9.85571 15.1667 10.5V14.6835L17.1583 16.6751C17.6139 17.1307 17.6139 17.8694 17.1583 18.325C16.7027 18.7806 15.964 18.7806 15.5084 18.325L13.175 15.9917C12.9563 15.7729 12.8333 15.4761 12.8333 15.1667V10.5C12.8333 9.85571 13.3557 9.33337 14 9.33337Z" fill="#D52953"/>
<path d="M5.36674 6.18344C4.85127 6.57004 4.12 6.46558 3.7334 5.95011C3.3468 5.43464 3.45127 4.70338 3.96674 4.31678L6.30007 2.56678C6.81553 2.18018 7.5468 2.28464 7.9334 2.80011C8.32 3.31557 8.21553 4.04684 7.70007 4.43344L5.36674 6.18344Z" fill="#D52953"/>
<path d="M21.7001 2.56691C21.1846 2.18031 20.4533 2.28478 20.0667 2.80025C19.6801 3.31571 19.7846 4.04698 20.3001 4.43358L22.6334 6.18358C23.1489 6.57018 23.8801 6.46571 24.2667 5.95025C24.6533 5.43478 24.5489 4.70351 24.0334 4.31691L21.7001 2.56691Z" fill="#D52953"/>
</svg>
