<svg width="28" height="28" viewBox="0 0 28 28" fill="none" xmlns="http://www.w3.org/2000/svg">
<path fill-rule="evenodd" clip-rule="evenodd" d="M19.645 5.83337H8.35503H8.35499C7.74 5.83336 7.20946 5.83334 6.77247 5.86904C6.31123 5.90673 5.85248 5.98993 5.41104 6.21485C4.75247 6.55041 4.21704 7.08584 3.88148 7.74441C3.65655 8.18585 3.57335 8.64461 3.53567 9.10584C3.49996 9.54283 3.49998 10.0734 3.5 10.6884V10.6884V19.645V19.6451C3.49998 20.26 3.49996 20.7906 3.53567 21.2276C3.57335 21.6888 3.65655 22.1476 3.88148 22.589C4.21704 23.2476 4.75247 23.783 5.41104 24.1186C5.85248 24.3435 6.31123 24.4267 6.77247 24.4644C7.20944 24.5001 7.73996 24.5001 8.35492 24.5H8.35506H19.6449H19.6451C20.26 24.5001 20.7906 24.5001 21.2275 24.4644C21.6888 24.4267 22.1475 24.3435 22.589 24.1186C23.2475 23.783 23.783 23.2476 24.1185 22.589C24.3435 22.1476 24.4267 21.6888 24.4643 21.2276C24.5 20.7906 24.5 20.26 24.5 19.645V10.6884C24.5 10.0734 24.5 9.54284 24.4643 9.10584C24.4267 8.64461 24.3435 8.18585 24.1185 7.74441C23.783 7.08584 23.2475 6.55041 22.589 6.21485C22.1475 5.98993 21.6888 5.90673 21.2275 5.86904C20.7905 5.83334 20.26 5.83336 19.645 5.83337H19.645Z" fill="#FAC3B2"/>
<path fill-rule="evenodd" clip-rule="evenodd" d="M3.5 10.5H24.5V12.8333H3.5V10.5Z" fill="#D52953"/>
<path d="M10.5 4.66667C10.5 4.02233 9.97766 3.5 9.33332 3.5C8.68899 3.5 8.16666 4.02233 8.16666 4.66667V7C8.16666 7.64433 8.68899 8.16667 9.33332 8.16667C9.97766 8.16667 10.5 7.64433 10.5 7V4.66667Z" fill="#D52953"/>
<path d="M19.8333 4.66667C19.8333 4.02233 19.311 3.5 18.6667 3.5C18.0223 3.5 17.5 4.02233 17.5 4.66667V7C17.5 7.64433 18.0223 8.16667 18.6667 8.16667C19.311 8.16667 19.8333 7.64433 19.8333 7V4.66667Z" fill="#D52953"/>
</svg>
