<svg width="28" height="28" viewBox="0 0 28 28" fill="none" xmlns="http://www.w3.org/2000/svg">
<path d="M14.8258 3.59879C14.2832 3.46707 13.7169 3.46707 13.1742 3.59879C12.5541 3.74932 12.0065 4.12133 11.3833 4.54481L5.54852 8.497C5.05105 8.83311 4.613 9.12908 4.28454 9.5329C3.99647 9.88707 3.78049 10.2942 3.64879 10.7313C3.49862 11.2296 3.49924 11.7582 3.49993 12.3585L3.50003 19.6461C3.50001 20.261 3.49999 20.7914 3.53569 21.2283C3.57338 21.6894 3.65658 22.1481 3.88151 22.5894C4.21706 23.2478 4.75249 23.7831 5.41106 24.1186C5.85251 24.3435 6.31126 24.4267 6.7725 24.4643C7.20949 24.5 7.74004 24.5 8.35504 24.5H19.645C20.26 24.5 20.7906 24.5 21.2276 24.4643C21.6888 24.4267 22.1476 24.3435 22.589 24.1186C23.2476 23.7831 23.783 23.2478 24.1186 22.5894C24.3435 22.1481 24.4267 21.6894 24.4644 21.2283C24.5001 20.7914 24.5001 20.261 24.5 19.6461L24.5001 12.3585C24.5008 11.7582 24.5014 11.2296 24.3513 10.7313C24.2196 10.2942 24.0036 9.88707 23.7155 9.5329C23.3871 9.12908 22.949 8.83311 22.4515 8.497L16.6168 4.54482C15.9935 4.12134 15.446 3.74932 14.8258 3.59879Z" fill="#FAC3B2"/>
<path d="M10.5 16.875C10.5 15.7704 11.3954 14.875 12.5 14.875H15.5C16.6046 14.875 17.5 15.7704 17.5 16.875V24.5H10.5V16.875Z" fill="#D52953"/>
</svg>
