<svg width="28" height="28" viewBox="0 0 28 28" fill="none" xmlns="http://www.w3.org/2000/svg">
<path d="M25.6667 14C25.6667 20.4434 20.4433 25.6667 14 25.6667C7.55667 25.6667 2.33333 20.4434 2.33333 14C2.33333 7.55672 7.55667 2.33337 14 2.33337C20.4433 2.33337 25.6667 7.55672 25.6667 14Z" fill="#FAC3B2"/>
<path fill-rule="evenodd" clip-rule="evenodd" d="M11.7583 10.9128L17.9405 9.35107C18.3687 9.24291 18.7571 9.63133 18.6489 10.0595L17.0872 16.2418C16.9822 16.6575 16.6575 16.9821 16.2418 17.0872L10.0596 18.6489C9.63141 18.7571 9.24298 18.3686 9.35115 17.9405L10.9129 11.7582C11.0179 11.3425 11.3425 11.0179 11.7583 10.9128ZM14 15.1667C14.6443 15.1667 15.1667 14.6443 15.1667 14C15.1667 13.3557 14.6443 12.8333 14 12.8333C13.3557 12.8333 12.8333 13.3557 12.8333 14C12.8333 14.6443 13.3557 15.1667 14 15.1667Z" fill="#D52953"/>
</svg>
