<svg width="24" height="24" viewBox="0 0 24 24" fill="none" xmlns="http://www.w3.org/2000/svg">
<path fill-rule="evenodd" clip-rule="evenodd" d="M3.80005 12C3.80005 11.3373 4.33731 10.8 5.00005 10.8L19 10.8C19.6628 10.8 20.2 11.3373 20.2 12C20.2 12.6628 19.6628 13.2 19 13.2L5.00005 13.2C4.33731 13.2 3.80005 12.6628 3.80005 12Z" fill="white"/>
<path fill-rule="evenodd" clip-rule="evenodd" d="M11.1515 19.8485C10.6829 19.3799 10.6829 18.6201 11.1515 18.1515L17.303 12L11.1515 5.84854C10.6829 5.37991 10.6829 4.62011 11.1515 4.15149C11.6202 3.68286 12.3799 3.68286 12.8486 4.15149L19.8486 11.1515C20.3172 11.6201 20.3172 12.3799 19.8486 12.8485L12.8486 19.8485C12.3799 20.3172 11.6201 20.3172 11.1515 19.8485Z" fill="white"/>
</svg>
