<svg width="24" height="24" viewBox="0 0 24 24" fill="none" xmlns="http://www.w3.org/2000/svg">
<path fill-rule="evenodd" clip-rule="evenodd" d="M15.1515 6.15146C14.6829 6.62009 14.6829 7.37989 15.1515 7.84852L19.303 12L15.1515 16.1515C14.6829 16.6201 14.6829 17.3799 15.1515 17.8485C15.6201 18.3171 16.3799 18.3171 16.8486 17.8485L21.8486 12.8485C22.0736 12.6235 22.2 12.3182 22.2 12C22.2 11.6817 22.0736 11.3765 21.8486 11.1515L16.8486 6.15146C16.3799 5.68283 15.6201 5.68283 15.1515 6.15146Z" fill="white"/>
<path fill-rule="evenodd" clip-rule="evenodd" d="M2.80005 12C2.80005 11.3372 3.33731 10.8 4.00005 10.8H20C20.6628 10.8 21.2001 11.3372 21.2001 12C21.2001 12.6627 20.6628 13.2 20 13.2H4.00005C3.33731 13.2 2.80005 12.6627 2.80005 12Z" fill="white"/>
</svg>
