<svg width="24" height="24" viewBox="0 0 24 24" fill="none" xmlns="http://www.w3.org/2000/svg">
<path fill-rule="evenodd" clip-rule="evenodd" d="M12 3.79999C12.6628 3.79999 13.2 4.33725 13.2 4.99999V19C13.2 19.6627 12.6628 20.2 12 20.2C11.3373 20.2 10.8 19.6627 10.8 19V4.99999C10.8 4.33725 11.3373 3.79999 12 3.79999Z" fill="white"/>
<path fill-rule="evenodd" clip-rule="evenodd" d="M4.15152 11.1515C4.62015 10.6828 5.37995 10.6828 5.84858 11.1515L12 17.3029L18.1515 11.1515C18.6201 10.6828 19.3799 10.6828 19.8486 11.1515C20.3172 11.6201 20.3172 12.3799 19.8486 12.8485L12.8486 19.8485C12.3799 20.3171 11.6201 20.3171 11.1515 19.8485L4.15152 12.8485C3.68289 12.3799 3.68289 11.6201 4.15152 11.1515Z" fill="white"/>
</svg>
