<svg width="24" height="24" viewBox="0 0 24 24" fill="none" xmlns="http://www.w3.org/2000/svg">
<path fill-rule="evenodd" clip-rule="evenodd" d="M12 20.2C12.6628 20.2 13.2 19.6628 13.2 19V5.00001C13.2 4.33727 12.6628 3.80001 12 3.80001C11.3373 3.80001 10.8 4.33727 10.8 5.00001V19C10.8 19.6628 11.3373 20.2 12 20.2Z" fill="white"/>
<path fill-rule="evenodd" clip-rule="evenodd" d="M4.15152 12.8485C4.62015 13.3172 5.37995 13.3172 5.84858 12.8485L12 6.69707L18.1515 12.8485C18.6201 13.3172 19.3799 13.3172 19.8486 12.8485C20.3172 12.3799 20.3172 11.6201 19.8486 11.1515L12.8486 4.15148C12.3799 3.68286 11.6201 3.68286 11.1515 4.15148L4.15152 11.1515C3.68289 11.6201 3.68289 12.3799 4.15152 12.8485Z" fill="white"/>
</svg>
