<svg width="24" height="24" viewBox="0 0 24 24" fill="none" xmlns="http://www.w3.org/2000/svg">
<path fill-rule="evenodd" clip-rule="evenodd" d="M9.84848 6.15146C10.3171 6.62009 10.3171 7.37989 9.84848 7.84852L5.69701 12L9.84848 16.1515C10.3171 16.6201 10.3171 17.3799 9.84848 17.8485C9.37985 18.3171 8.62005 18.3171 8.15142 17.8485L3.15142 12.8485C2.92638 12.6235 2.79995 12.3182 2.79995 12C2.79995 11.6817 2.92638 11.3765 3.15142 11.1515L8.15142 6.15146C8.62005 5.68283 9.37985 5.68283 9.84848 6.15146Z" fill="white"/>
<path fill-rule="evenodd" clip-rule="evenodd" d="M22.2 12C22.2 11.3372 21.6627 10.8 21 10.8H4.99995C4.33721 10.8 3.79995 11.3372 3.79995 12C3.79995 12.6627 4.33721 13.2 4.99995 13.2H21C21.6627 13.2 22.2 12.6627 22.2 12Z" fill="white"/>
</svg>
