<svg width="24" height="24" viewBox="0 0 24 24" fill="none" xmlns="http://www.w3.org/2000/svg">
<path fill-rule="evenodd" clip-rule="evenodd" d="M20.2 12C20.2 11.3373 19.6627 10.8 19 10.8L4.99995 10.8C4.33721 10.8 3.79995 11.3373 3.79995 12C3.79995 12.6628 4.33721 13.2 4.99995 13.2L19 13.2C19.6627 13.2 20.2 12.6628 20.2 12Z" fill="white"/>
<path fill-rule="evenodd" clip-rule="evenodd" d="M12.8485 19.8485C13.3171 19.3799 13.3171 18.6201 12.8485 18.1515L6.69701 12L12.8485 5.84854C13.3171 5.37991 13.3171 4.62011 12.8485 4.15149C12.3798 3.68286 11.6201 3.68286 11.1514 4.15149L4.15142 11.1515C3.68279 11.6201 3.68279 12.3799 4.15142 12.8485L11.1514 19.8485C11.6201 20.3172 12.3799 20.3172 12.8485 19.8485Z" fill="white"/>
</svg>
