<svg width="24" height="24" viewBox="0 0 24 24" fill="none" xmlns="http://www.w3.org/2000/svg">
<path fill-rule="evenodd" clip-rule="evenodd" d="M4.15152 5.15146C4.62015 4.68283 5.37995 4.68283 5.84858 5.15146L12 11.3029L18.1515 5.15146C18.6201 4.68283 19.3799 4.68283 19.8486 5.15146C20.3172 5.62009 20.3172 6.37989 19.8486 6.84852L12.8486 13.8485C12.3799 14.3171 11.6201 14.3171 11.1515 13.8485L4.15152 6.84852C3.68289 6.37989 3.68289 5.62009 4.15152 5.15146Z" fill="white"/>
<path fill-rule="evenodd" clip-rule="evenodd" d="M2.80005 18C2.80005 18.6628 3.33731 19.2 4.00005 19.2H20C20.6628 19.2 21.2001 18.6628 21.2001 18C21.2001 17.3373 20.6628 16.8 20 16.8H4.00005C3.33731 16.8 2.80005 17.3373 2.80005 18Z" fill="white"/>
</svg>
