<svg width="24" height="24" viewBox="0 0 24 24" fill="none" xmlns="http://www.w3.org/2000/svg">
<path fill-rule="evenodd" clip-rule="evenodd" d="M4.15152 18.8485C4.62015 19.3172 5.37995 19.3172 5.84858 18.8485L12 12.6971L18.1515 18.8485C18.6201 19.3172 19.3799 19.3172 19.8486 18.8485C20.3172 18.3799 20.3172 17.6201 19.8486 17.1515L12.8486 10.1515C12.3799 9.68286 11.6201 9.68286 11.1515 10.1515L4.15152 17.1515C3.68289 17.6201 3.68289 18.3799 4.15152 18.8485Z" fill="white"/>
<path fill-rule="evenodd" clip-rule="evenodd" d="M2.80005 5.99999C2.80005 5.33725 3.33731 4.79999 4.00005 4.79999H20C20.6628 4.79999 21.2001 5.33725 21.2001 5.99999C21.2001 6.66273 20.6628 7.19999 20 7.19999H4.00005C3.33731 7.19999 2.80005 6.66273 2.80005 5.99999Z" fill="white"/>
</svg>
