<svg width="24" height="24" viewBox="0 0 24 24" fill="none" xmlns="http://www.w3.org/2000/svg">
<path fill-rule="evenodd" clip-rule="evenodd" d="M12 2.79999C12.6628 2.79999 13.2 3.33725 13.2 3.99999V20C13.2 20.6627 12.6628 21.2 12 21.2C11.3373 21.2 10.8 20.6627 10.8 20V3.99999C10.8 3.33725 11.3373 2.79999 12 2.79999Z" fill="white"/>
<path fill-rule="evenodd" clip-rule="evenodd" d="M21.2 12C21.2 12.6627 20.6627 13.2 20 13.2L3.99995 13.2C3.33721 13.2 2.79995 12.6627 2.79995 12C2.79995 11.3372 3.33721 10.8 3.99995 10.8L20 10.8C20.6627 10.8 21.2 11.3372 21.2 12Z" fill="white"/>
</svg>
