<svg width="24" height="24" viewBox="0 0 24 24" fill="none" xmlns="http://www.w3.org/2000/svg">
<path fill-rule="evenodd" clip-rule="evenodd" d="M18.8485 5.15145C19.3172 5.62007 19.3172 6.37987 18.8485 6.8485L6.84853 18.8485C6.3799 19.3171 5.6201 19.3171 5.15147 18.8485C4.68284 18.3799 4.68284 17.6201 5.15147 17.1514L17.1515 5.15145C17.6201 4.68282 18.3799 4.68282 18.8485 5.15145Z" fill="white"/>
<path fill-rule="evenodd" clip-rule="evenodd" d="M18.8485 18.8485C18.3799 19.3172 17.6201 19.3172 17.1514 18.8485L5.15144 6.84853C4.68281 6.3799 4.68281 5.6201 5.15144 5.15147C5.62007 4.68284 6.37987 4.68284 6.8485 5.15147L18.8485 17.1515C19.3171 17.6201 19.3171 18.3799 18.8485 18.8485Z" fill="white"/>
</svg>
